<svg width="836" height="347" viewBox="0 0 836 347" fill="none" xmlns="http://www.w3.org/2000/svg">
<path d="M2 118.5C52.7317 118.5 85.7073 175.5 115.132 190C149.629 207 208.478 203 227.249 214.5C246.02 226 323.132 236.5 337.844 238.5C352.556 240.5 556.498 235.5 590.995 226C625.493 216.5 694.121 210.359 727.463 197.5C762.468 184 767.472 155.213 792.4 146C812.693 138.5 828.589 108.667 834 99" stroke="white" stroke-width="4" stroke-linecap="round"/>
<path d="M6.151 11.545C6.52433 11.5217 6.85567 11.447 7.145 11.321C7.43433 11.1903 7.67933 11.0223 7.88 10.817C8.08067 10.607 8.23233 10.3667 8.335 10.096C8.43767 9.82067 8.489 9.52667 8.489 9.214C8.489 8.906 8.43067 8.64467 8.314 8.43C8.19733 8.21533 8.041 8.03333 7.845 7.884C7.649 7.73467 7.42267 7.611 7.166 7.513C6.914 7.41033 6.648 7.31467 6.368 7.226L6.151 11.545ZM6.151 2.571C5.79633 2.58967 5.486 2.655 5.22 2.767C4.95867 2.87433 4.73933 3.01667 4.562 3.194C4.38467 3.36667 4.25167 3.565 4.163 3.789C4.07433 4.013 4.03 4.24867 4.03 4.496C4.03 4.78533 4.08133 5.03267 4.184 5.238C4.28667 5.44333 4.42667 5.62067 4.604 5.77C4.78133 5.91467 4.98433 6.04067 5.213 6.148C5.44633 6.25067 5.69367 6.34633 5.955 6.435L6.151 2.571ZM6.396 6.575C6.72733 6.68233 7.05633 6.79667 7.383 6.918C7.70967 7.03467 8.00133 7.18633 8.258 7.373C8.51467 7.55967 8.72233 7.79067 8.881 8.066C9.03967 8.34133 9.119 8.689 9.119 9.109C9.119 9.51033 9.05133 9.88833 8.916 10.243C8.78533 10.5977 8.59167 10.9103 8.335 11.181C8.07833 11.447 7.76333 11.6617 7.39 11.825C7.02133 11.9883 6.599 12.0817 6.123 12.105L6.046 13.582C6.04133 13.6427 6.02033 13.694 5.983 13.736C5.95033 13.778 5.90133 13.799 5.836 13.799H5.584L5.668 12.105C5.07067 12.077 4.55033 11.9487 4.107 11.72C3.66833 11.4913 3.281 11.1903 2.945 10.817L3.134 10.544C3.19 10.474 3.25533 10.439 3.33 10.439C3.372 10.439 3.42333 10.4647 3.484 10.516C3.54467 10.5673 3.61933 10.6327 3.708 10.712C3.79667 10.7867 3.90167 10.8707 4.023 10.964C4.14433 11.0527 4.28433 11.139 4.443 11.223C4.60633 11.3023 4.79067 11.3723 4.996 11.433C5.20133 11.4937 5.43467 11.531 5.696 11.545L5.927 7.086C5.60967 6.988 5.29933 6.88067 4.996 6.764C4.69267 6.64267 4.422 6.48867 4.184 6.302C3.95067 6.11067 3.76167 5.87733 3.617 5.602C3.47233 5.322 3.4 4.972 3.4 4.552C3.4 4.22533 3.46067 3.91267 3.582 3.614C3.708 3.31067 3.88767 3.04233 4.121 2.809C4.359 2.571 4.65067 2.37967 4.996 2.235C5.34133 2.09033 5.738 2.011 6.186 1.997L6.242 0.827999C6.242 0.762666 6.26067 0.708999 6.298 0.666999C6.33533 0.625 6.38433 0.604 6.445 0.604H6.697L6.627 2.011C7.09833 2.04367 7.51133 2.14867 7.866 2.326C8.22067 2.49867 8.545 2.732 8.839 3.026L8.685 3.264C8.63833 3.34333 8.57533 3.383 8.496 3.383C8.44 3.383 8.36533 3.34567 8.272 3.271C8.18333 3.19167 8.06433 3.10533 7.915 3.012C7.77033 2.914 7.59067 2.823 7.376 2.739C7.16133 2.65033 6.90233 2.59433 6.599 2.571L6.396 6.575ZM14.1741 11.559C14.5754 11.559 14.9371 11.496 15.2591 11.37C15.5811 11.244 15.8541 11.0713 16.0781 10.852C16.3068 10.628 16.4818 10.3643 16.6031 10.061C16.7244 9.753 16.7851 9.41933 16.7851 9.06C16.7851 8.682 16.7244 8.34133 16.6031 8.038C16.4864 7.73 16.3184 7.471 16.0991 7.261C15.8844 7.04633 15.6278 6.883 15.3291 6.771C15.0304 6.65433 14.6991 6.596 14.3351 6.596C13.9244 6.596 13.5558 6.66833 13.2291 6.813C12.9071 6.953 12.6341 7.13733 12.4101 7.366C12.1861 7.59 12.0158 7.84667 11.8991 8.136C11.7824 8.42533 11.7241 8.717 11.7241 9.011C11.7241 9.37967 11.7801 9.72033 11.8921 10.033C12.0088 10.3457 12.1721 10.6163 12.3821 10.845C12.5921 11.069 12.8488 11.244 13.1521 11.37C13.4554 11.496 13.7961 11.559 14.1741 11.559ZM13.0261 5.952C12.8814 6.14333 12.7484 6.323 12.6271 6.491C12.5058 6.659 12.3961 6.82467 12.2981 6.988C12.5734 6.70333 12.9001 6.48167 13.2781 6.323C13.6561 6.15967 14.0691 6.078 14.5171 6.078C14.9418 6.078 15.3338 6.148 15.6931 6.288C16.0524 6.428 16.3604 6.62633 16.6171 6.883C16.8784 7.135 17.0814 7.443 17.2261 7.807C17.3754 8.16633 17.4501 8.57 17.4501 9.018C17.4501 9.466 17.3684 9.879 17.2051 10.257C17.0464 10.635 16.8224 10.9617 16.5331 11.237C16.2484 11.5123 15.9054 11.727 15.5041 11.881C15.1028 12.035 14.6618 12.112 14.1811 12.112C13.7191 12.112 13.2968 12.0373 12.9141 11.888C12.5314 11.7387 12.2024 11.524 11.9271 11.244C11.6564 10.964 11.4464 10.6233 11.2971 10.222C11.1478 9.816 11.0731 9.35867 11.0731 8.85C11.0731 8.46267 11.1711 8.02633 11.3671 7.541C11.5631 7.051 11.8851 6.50267 12.3331 5.896L15.0351 2.256C15.1144 2.14867 15.2334 2.095 15.3921 2.095H15.9801L13.0261 5.952ZM25.8512 7.044C25.8512 7.912 25.7579 8.66333 25.5712 9.298C25.3845 9.93267 25.1302 10.4577 24.8082 10.873C24.4862 11.2883 24.1082 11.5987 23.6742 11.804C23.2449 12.0047 22.7852 12.105 22.2952 12.105C21.8052 12.105 21.3455 12.0047 20.9162 11.804C20.4869 11.5987 20.1112 11.2883 19.7892 10.873C19.4672 10.4577 19.2129 9.93267 19.0262 9.298C18.8442 8.66333 18.7532 7.912 18.7532 7.044C18.7532 6.176 18.8442 5.42467 19.0262 4.79C19.2129 4.15533 19.4672 3.63033 19.7892 3.215C20.1112 2.79967 20.4869 2.49167 20.9162 2.291C21.3455 2.08567 21.8052 1.983 22.2952 1.983C22.7852 1.983 23.2449 2.08567 23.6742 2.291C24.1082 2.49167 24.4862 2.79967 24.8082 3.215C25.1302 3.63033 25.3845 4.15533 25.5712 4.79C25.7579 5.42467 25.8512 6.176 25.8512 7.044ZM25.1512 7.044C25.1512 6.24133 25.0742 5.55533 24.9202 4.986C24.7662 4.41667 24.5585 3.95233 24.2972 3.593C24.0405 3.229 23.7372 2.963 23.3872 2.795C23.0419 2.627 22.6779 2.543 22.2952 2.543C21.9125 2.543 21.5485 2.627 21.2032 2.795C20.8579 2.963 20.5545 3.229 20.2932 3.593C20.0319 3.95233 19.8242 4.41667 19.6702 4.986C19.5162 5.55533 19.4392 6.24133 19.4392 7.044C19.4392 7.85133 19.5162 8.53967 19.6702 9.109C19.8242 9.67367 20.0319 10.138 20.2932 10.502C20.5545 10.8613 20.8579 11.125 21.2032 11.293C21.5485 11.4563 21.9125 11.538 22.2952 11.538C22.6779 11.538 23.0419 11.4563 23.3872 11.293C23.7372 11.125 24.0405 10.8613 24.2972 10.502C24.5585 10.138 24.7662 9.67367 24.9202 9.109C25.0742 8.53967 25.1512 7.85133 25.1512 7.044ZM33.9723 7.044C33.9723 7.912 33.8789 8.66333 33.6923 9.298C33.5056 9.93267 33.2513 10.4577 32.9293 10.873C32.6073 11.2883 32.2293 11.5987 31.7953 11.804C31.3659 12.0047 30.9063 12.105 30.4163 12.105C29.9263 12.105 29.4666 12.0047 29.0373 11.804C28.6079 11.5987 28.2323 11.2883 27.9103 10.873C27.5883 10.4577 27.3339 9.93267 27.1473 9.298C26.9653 8.66333 26.8743 7.912 26.8743 7.044C26.8743 6.176 26.9653 5.42467 27.1473 4.79C27.3339 4.15533 27.5883 3.63033 27.9103 3.215C28.2323 2.79967 28.6079 2.49167 29.0373 2.291C29.4666 2.08567 29.9263 1.983 30.4163 1.983C30.9063 1.983 31.3659 2.08567 31.7953 2.291C32.2293 2.49167 32.6073 2.79967 32.9293 3.215C33.2513 3.63033 33.5056 4.15533 33.6923 4.79C33.8789 5.42467 33.9723 6.176 33.9723 7.044ZM33.2723 7.044C33.2723 6.24133 33.1953 5.55533 33.0413 4.986C32.8873 4.41667 32.6796 3.95233 32.4183 3.593C32.1616 3.229 31.8583 2.963 31.5083 2.795C31.1629 2.627 30.7989 2.543 30.4163 2.543C30.0336 2.543 29.6696 2.627 29.3243 2.795C28.9789 2.963 28.6756 3.229 28.4143 3.593C28.1529 3.95233 27.9453 4.41667 27.7913 4.986C27.6373 5.55533 27.5603 6.24133 27.5603 7.044C27.5603 7.85133 27.6373 8.53967 27.7913 9.109C27.9453 9.67367 28.1529 10.138 28.4143 10.502C28.6756 10.8613 28.9789 11.125 29.3243 11.293C29.6696 11.4563 30.0336 11.538 30.4163 11.538C30.7989 11.538 31.1629 11.4563 31.5083 11.293C31.8583 11.125 32.1616 10.8613 32.4183 10.502C32.6796 10.138 32.8873 9.67367 33.0413 9.109C33.1953 8.53967 33.2723 7.85133 33.2723 7.044Z" fill="white"/>
<path d="M2 27H834" stroke="white" stroke-opacity="0.64" stroke-dasharray="4 4"/>
<path d="M6.151 147.545C6.52433 147.522 6.85567 147.447 7.145 147.321C7.43433 147.19 7.67933 147.022 7.88 146.817C8.08067 146.607 8.23233 146.367 8.335 146.096C8.43767 145.821 8.489 145.527 8.489 145.214C8.489 144.906 8.43067 144.645 8.314 144.43C8.19733 144.215 8.041 144.033 7.845 143.884C7.649 143.735 7.42267 143.611 7.166 143.513C6.914 143.41 6.648 143.315 6.368 143.226L6.151 147.545ZM6.151 138.571C5.79633 138.59 5.486 138.655 5.22 138.767C4.95867 138.874 4.73933 139.017 4.562 139.194C4.38467 139.367 4.25167 139.565 4.163 139.789C4.07433 140.013 4.03 140.249 4.03 140.496C4.03 140.785 4.08133 141.033 4.184 141.238C4.28667 141.443 4.42667 141.621 4.604 141.77C4.78133 141.915 4.98433 142.041 5.213 142.148C5.44633 142.251 5.69367 142.346 5.955 142.435L6.151 138.571ZM6.396 142.575C6.72733 142.682 7.05633 142.797 7.383 142.918C7.70967 143.035 8.00133 143.186 8.258 143.373C8.51467 143.56 8.72233 143.791 8.881 144.066C9.03967 144.341 9.119 144.689 9.119 145.109C9.119 145.51 9.05133 145.888 8.916 146.243C8.78533 146.598 8.59167 146.91 8.335 147.181C8.07833 147.447 7.76333 147.662 7.39 147.825C7.02133 147.988 6.599 148.082 6.123 148.105L6.046 149.582C6.04133 149.643 6.02033 149.694 5.983 149.736C5.95033 149.778 5.90133 149.799 5.836 149.799H5.584L5.668 148.105C5.07067 148.077 4.55033 147.949 4.107 147.72C3.66833 147.491 3.281 147.19 2.945 146.817L3.134 146.544C3.19 146.474 3.25533 146.439 3.33 146.439C3.372 146.439 3.42333 146.465 3.484 146.516C3.54467 146.567 3.61933 146.633 3.708 146.712C3.79667 146.787 3.90167 146.871 4.023 146.964C4.14433 147.053 4.28433 147.139 4.443 147.223C4.60633 147.302 4.79067 147.372 4.996 147.433C5.20133 147.494 5.43467 147.531 5.696 147.545L5.927 143.086C5.60967 142.988 5.29933 142.881 4.996 142.764C4.69267 142.643 4.422 142.489 4.184 142.302C3.95067 142.111 3.76167 141.877 3.617 141.602C3.47233 141.322 3.4 140.972 3.4 140.552C3.4 140.225 3.46067 139.913 3.582 139.614C3.708 139.311 3.88767 139.042 4.121 138.809C4.359 138.571 4.65067 138.38 4.996 138.235C5.34133 138.09 5.738 138.011 6.186 137.997L6.242 136.828C6.242 136.763 6.26067 136.709 6.298 136.667C6.33533 136.625 6.38433 136.604 6.445 136.604H6.697L6.627 138.011C7.09833 138.044 7.51133 138.149 7.866 138.326C8.22067 138.499 8.545 138.732 8.839 139.026L8.685 139.264C8.63833 139.343 8.57533 139.383 8.496 139.383C8.44 139.383 8.36533 139.346 8.272 139.271C8.18333 139.192 8.06433 139.105 7.915 139.012C7.77033 138.914 7.59067 138.823 7.376 138.739C7.16133 138.65 6.90233 138.594 6.599 138.571L6.396 142.575ZM11.2131 140.657C11.2738 140.232 11.3904 139.854 11.5631 139.523C11.7358 139.192 11.9551 138.912 12.2211 138.683C12.4871 138.454 12.7951 138.282 13.1451 138.165C13.4951 138.044 13.8731 137.983 14.2791 137.983C14.6571 137.983 15.0141 138.037 15.3501 138.144C15.6861 138.247 15.9801 138.403 16.2321 138.613C16.4888 138.823 16.6894 139.084 16.8341 139.397C16.9834 139.71 17.0581 140.071 17.0581 140.482C17.0581 140.804 17.0091 141.096 16.9111 141.357C16.8131 141.614 16.6754 141.84 16.4981 142.036C16.3254 142.232 16.1201 142.398 15.8821 142.533C15.6441 142.664 15.3851 142.764 15.1051 142.834C15.8331 142.969 16.3814 143.252 16.7501 143.681C17.1234 144.106 17.3101 144.638 17.3101 145.277C17.3101 145.683 17.2284 146.061 17.0651 146.411C16.9018 146.756 16.6778 147.055 16.3931 147.307C16.1084 147.559 15.7724 147.757 15.3851 147.902C14.9978 148.042 14.5778 148.112 14.1251 148.112C13.5604 148.112 13.0891 148.037 12.7111 147.888C12.3378 147.734 12.0298 147.536 11.7871 147.293C11.5444 147.05 11.3554 146.78 11.2201 146.481C11.0848 146.178 10.9751 145.877 10.8911 145.578L11.1571 145.466C11.2318 145.433 11.3088 145.424 11.3881 145.438C11.4721 145.452 11.5328 145.506 11.5701 145.599C11.5934 145.655 11.6238 145.744 11.6611 145.865C11.7031 145.982 11.7614 146.112 11.8361 146.257C11.9108 146.402 12.0064 146.551 12.1231 146.705C12.2444 146.854 12.3938 146.992 12.5711 147.118C12.7531 147.244 12.9701 147.347 13.2221 147.426C13.4741 147.505 13.7728 147.545 14.1181 147.545C14.5381 147.545 14.9044 147.475 15.2171 147.335C15.5344 147.195 15.7981 147.018 16.0081 146.803C16.2228 146.584 16.3814 146.341 16.4841 146.075C16.5914 145.804 16.6451 145.543 16.6451 145.291C16.6451 144.988 16.5961 144.705 16.4981 144.444C16.4048 144.183 16.2461 143.959 16.0221 143.772C15.7981 143.581 15.5018 143.431 15.1331 143.324C14.7691 143.212 14.3188 143.156 13.7821 143.156V142.673C14.2114 142.664 14.5894 142.608 14.9161 142.505C15.2428 142.398 15.5158 142.253 15.7351 142.071C15.9544 141.889 16.1201 141.672 16.2321 141.42C16.3441 141.168 16.4001 140.89 16.4001 140.587C16.4001 140.237 16.3418 139.934 16.2251 139.677C16.1084 139.42 15.9521 139.208 15.7561 139.04C15.5601 138.872 15.3314 138.748 15.0701 138.669C14.8088 138.59 14.5358 138.55 14.2511 138.55C13.9384 138.55 13.6491 138.599 13.3831 138.697C13.1171 138.79 12.8814 138.923 12.6761 139.096C12.4754 139.264 12.3074 139.467 12.1721 139.705C12.0368 139.938 11.9434 140.195 11.8921 140.475C11.8641 140.578 11.8244 140.645 11.7731 140.678C11.7218 140.711 11.6494 140.722 11.5561 140.713L11.2131 140.657ZM25.8512 143.044C25.8512 143.912 25.7579 144.663 25.5712 145.298C25.3845 145.933 25.1302 146.458 24.8082 146.873C24.4862 147.288 24.1082 147.599 23.6742 147.804C23.2449 148.005 22.7852 148.105 22.2952 148.105C21.8052 148.105 21.3455 148.005 20.9162 147.804C20.4869 147.599 20.1112 147.288 19.7892 146.873C19.4672 146.458 19.2129 145.933 19.0262 145.298C18.8442 144.663 18.7532 143.912 18.7532 143.044C18.7532 142.176 18.8442 141.425 19.0262 140.79C19.2129 140.155 19.4672 139.63 19.7892 139.215C20.1112 138.8 20.4869 138.492 20.9162 138.291C21.3455 138.086 21.8052 137.983 22.2952 137.983C22.7852 137.983 23.2449 138.086 23.6742 138.291C24.1082 138.492 24.4862 138.8 24.8082 139.215C25.1302 139.63 25.3845 140.155 25.5712 140.79C25.7579 141.425 25.8512 142.176 25.8512 143.044ZM25.1512 143.044C25.1512 142.241 25.0742 141.555 24.9202 140.986C24.7662 140.417 24.5585 139.952 24.2972 139.593C24.0405 139.229 23.7372 138.963 23.3872 138.795C23.0419 138.627 22.6779 138.543 22.2952 138.543C21.9125 138.543 21.5485 138.627 21.2032 138.795C20.8579 138.963 20.5545 139.229 20.2932 139.593C20.0319 139.952 19.8242 140.417 19.6702 140.986C19.5162 141.555 19.4392 142.241 19.4392 143.044C19.4392 143.851 19.5162 144.54 19.6702 145.109C19.8242 145.674 20.0319 146.138 20.2932 146.502C20.5545 146.861 20.8579 147.125 21.2032 147.293C21.5485 147.456 21.9125 147.538 22.2952 147.538C22.6779 147.538 23.0419 147.456 23.3872 147.293C23.7372 147.125 24.0405 146.861 24.2972 146.502C24.5585 146.138 24.7662 145.674 24.9202 145.109C25.0742 144.54 25.1512 143.851 25.1512 143.044ZM33.9723 143.044C33.9723 143.912 33.8789 144.663 33.6923 145.298C33.5056 145.933 33.2513 146.458 32.9293 146.873C32.6073 147.288 32.2293 147.599 31.7953 147.804C31.3659 148.005 30.9063 148.105 30.4163 148.105C29.9263 148.105 29.4666 148.005 29.0373 147.804C28.6079 147.599 28.2323 147.288 27.9103 146.873C27.5883 146.458 27.3339 145.933 27.1473 145.298C26.9653 144.663 26.8743 143.912 26.8743 143.044C26.8743 142.176 26.9653 141.425 27.1473 140.79C27.3339 140.155 27.5883 139.63 27.9103 139.215C28.2323 138.8 28.6079 138.492 29.0373 138.291C29.4666 138.086 29.9263 137.983 30.4163 137.983C30.9063 137.983 31.3659 138.086 31.7953 138.291C32.2293 138.492 32.6073 138.8 32.9293 139.215C33.2513 139.63 33.5056 140.155 33.6923 140.79C33.8789 141.425 33.9723 142.176 33.9723 143.044ZM33.2723 143.044C33.2723 142.241 33.1953 141.555 33.0413 140.986C32.8873 140.417 32.6796 139.952 32.4183 139.593C32.1616 139.229 31.8583 138.963 31.5083 138.795C31.1629 138.627 30.7989 138.543 30.4163 138.543C30.0336 138.543 29.6696 138.627 29.3243 138.795C28.9789 138.963 28.6756 139.229 28.4143 139.593C28.1529 139.952 27.9453 140.417 27.7913 140.986C27.6373 141.555 27.5603 142.241 27.5603 143.044C27.5603 143.851 27.6373 144.54 27.7913 145.109C27.9453 145.674 28.1529 146.138 28.4143 146.502C28.6756 146.861 28.9789 147.125 29.3243 147.293C29.6696 147.456 30.0336 147.538 30.4163 147.538C30.7989 147.538 31.1629 147.456 31.5083 147.293C31.8583 147.125 32.1616 146.861 32.4183 146.502C32.6796 146.138 32.8873 145.674 33.0413 145.109C33.1953 144.54 33.2723 143.851 33.2723 143.044Z" fill="white"/>
<path d="M2 163H834" stroke="white" stroke-opacity="0.64" stroke-dasharray="4 4"/>
<mask id="path-6-inside-1_959_10115" fill="white">
<path d="M2 299H834V347H2V299Z"/>
</mask>
<path d="M2 300H834V298H2V300Z" fill="white" mask="url(#path-6-inside-1_959_10115)"/>
<path d="M30 299V305" stroke="white"/>
<path d="M21.913 331.268C22.3097 331.268 22.6643 331.2 22.977 331.065C23.2897 330.93 23.551 330.752 23.761 330.533C23.9757 330.314 24.139 330.069 24.251 329.798C24.363 329.523 24.419 329.245 24.419 328.965C24.419 328.606 24.3607 328.277 24.244 327.978C24.1273 327.679 23.964 327.425 23.754 327.215C23.544 327 23.2943 326.835 23.005 326.718C22.7203 326.597 22.4077 326.536 22.067 326.536C21.6983 326.536 21.3623 326.594 21.059 326.711C20.7557 326.828 20.4943 326.991 20.275 327.201C20.0603 327.411 19.8923 327.663 19.771 327.957C19.6497 328.246 19.589 328.566 19.589 328.916C19.589 329.28 19.6427 329.609 19.75 329.903C19.862 330.192 20.0183 330.44 20.219 330.645C20.4243 330.846 20.6693 331 20.954 331.107C21.2433 331.214 21.563 331.268 21.913 331.268ZM23.236 331.912C23.376 331.711 23.5067 331.525 23.628 331.352C23.7493 331.175 23.859 331.002 23.957 330.834C23.6863 331.137 23.3573 331.373 22.97 331.541C22.5827 331.704 22.1697 331.786 21.731 331.786C21.325 331.786 20.9493 331.721 20.604 331.59C20.2633 331.455 19.967 331.263 19.715 331.016C19.463 330.769 19.267 330.472 19.127 330.127C18.987 329.777 18.917 329.387 18.917 328.958C18.917 328.533 18.9963 328.141 19.155 327.782C19.3137 327.418 19.533 327.103 19.813 326.837C20.093 326.571 20.4243 326.363 20.807 326.214C21.1943 326.06 21.6167 325.983 22.074 325.983C22.5127 325.983 22.914 326.058 23.278 326.207C23.6467 326.356 23.9617 326.569 24.223 326.844C24.489 327.115 24.6943 327.441 24.839 327.824C24.9883 328.202 25.063 328.624 25.063 329.091C25.063 329.348 25.035 329.593 24.979 329.826C24.9277 330.059 24.8483 330.293 24.741 330.526C24.6383 330.759 24.5123 331 24.363 331.247C24.2137 331.49 24.0433 331.751 23.852 332.031L21.255 335.839C21.185 335.946 21.0707 336 20.912 336H20.303L23.236 331.912ZM33.7301 331.044C33.7301 331.912 33.6368 332.663 33.4501 333.298C33.2634 333.933 33.0091 334.458 32.6871 334.873C32.3651 335.288 31.9871 335.599 31.5531 335.804C31.1238 336.005 30.6641 336.105 30.1741 336.105C29.6841 336.105 29.2244 336.005 28.7951 335.804C28.3658 335.599 27.9901 335.288 27.6681 334.873C27.3461 334.458 27.0918 333.933 26.9051 333.298C26.7231 332.663 26.6321 331.912 26.6321 331.044C26.6321 330.176 26.7231 329.425 26.9051 328.79C27.0918 328.155 27.3461 327.63 27.6681 327.215C27.9901 326.8 28.3658 326.492 28.7951 326.291C29.2244 326.086 29.6841 325.983 30.1741 325.983C30.6641 325.983 31.1238 326.086 31.5531 326.291C31.9871 326.492 32.3651 326.8 32.6871 327.215C33.0091 327.63 33.2634 328.155 33.4501 328.79C33.6368 329.425 33.7301 330.176 33.7301 331.044ZM33.0301 331.044C33.0301 330.241 32.9531 329.555 32.7991 328.986C32.6451 328.417 32.4374 327.952 32.1761 327.593C31.9194 327.229 31.6161 326.963 31.2661 326.795C30.9208 326.627 30.5568 326.543 30.1741 326.543C29.7914 326.543 29.4274 326.627 29.0821 326.795C28.7368 326.963 28.4334 327.229 28.1721 327.593C27.9108 327.952 27.7031 328.417 27.5491 328.986C27.3951 329.555 27.3181 330.241 27.3181 331.044C27.3181 331.851 27.3951 332.54 27.5491 333.109C27.7031 333.674 27.9108 334.138 28.1721 334.502C28.4334 334.861 28.7368 335.125 29.0821 335.293C29.4274 335.456 29.7914 335.538 30.1741 335.538C30.5568 335.538 30.9208 335.456 31.2661 335.293C31.6161 335.125 31.9194 334.861 32.1761 334.502C32.4374 334.138 32.6451 333.674 32.7991 333.109C32.9531 332.54 33.0301 331.851 33.0301 331.044ZM40.1432 330.533C39.8772 330.132 39.5809 329.849 39.2542 329.686C38.9322 329.523 38.5635 329.441 38.1482 329.441C37.7375 329.441 37.3782 329.516 37.0702 329.665C36.7622 329.814 36.5032 330.027 36.2932 330.302C36.0879 330.573 35.9315 330.899 35.8242 331.282C35.7215 331.66 35.6702 332.078 35.6702 332.535C35.6702 333.571 35.8592 334.334 36.2372 334.824C36.6199 335.309 37.1705 335.552 37.8892 335.552C38.3465 335.552 38.7642 335.433 39.1422 335.195C39.5202 334.957 39.8539 334.623 40.1432 334.194V330.533ZM40.8082 325.815V336H40.4442C40.3229 336 40.2529 335.939 40.2342 335.818L40.1642 334.719C39.8562 335.139 39.4969 335.473 39.0862 335.72C38.6755 335.967 38.2135 336.091 37.7002 336.091C36.8415 336.091 36.1742 335.795 35.6982 335.202C35.2222 334.609 34.9842 333.72 34.9842 332.535C34.9842 332.026 35.0495 331.553 35.1802 331.114C35.3155 330.671 35.5115 330.288 35.7682 329.966C36.0249 329.639 36.3399 329.383 36.7132 329.196C37.0912 329.009 37.5252 328.916 38.0152 328.916C38.4865 328.916 38.8949 329.002 39.2402 329.175C39.5855 329.348 39.8865 329.604 40.1432 329.945V325.815H40.8082Z" fill="white"/>
<path d="M117.111 299V305" stroke="white"/>
<path d="M109.171 335.58C109.549 335.58 109.892 335.529 110.2 335.426C110.513 335.319 110.781 335.169 111.005 334.978C111.229 334.782 111.402 334.549 111.523 334.278C111.644 334.007 111.705 333.706 111.705 333.375C111.705 332.941 111.626 332.579 111.467 332.29C111.308 332.001 111.105 331.77 110.858 331.597C110.611 331.424 110.338 331.303 110.039 331.233C109.74 331.158 109.451 331.121 109.171 331.121C108.891 331.121 108.602 331.158 108.303 331.233C108.004 331.303 107.731 331.424 107.484 331.597C107.237 331.77 107.034 332.001 106.875 332.29C106.716 332.579 106.637 332.941 106.637 333.375C106.637 333.706 106.698 334.007 106.819 334.278C106.94 334.549 107.111 334.782 107.33 334.978C107.554 335.169 107.822 335.319 108.135 335.426C108.448 335.529 108.793 335.58 109.171 335.58ZM106.959 328.517C106.959 328.783 107.001 329.04 107.085 329.287C107.174 329.534 107.309 329.756 107.491 329.952C107.673 330.143 107.902 330.297 108.177 330.414C108.457 330.526 108.788 330.582 109.171 330.582C109.549 330.582 109.876 330.526 110.151 330.414C110.431 330.297 110.662 330.143 110.844 329.952C111.026 329.756 111.159 329.534 111.243 329.287C111.332 329.04 111.376 328.783 111.376 328.517C111.376 328.232 111.327 327.969 111.229 327.726C111.131 327.479 110.986 327.264 110.795 327.082C110.608 326.9 110.377 326.758 110.102 326.655C109.831 326.552 109.521 326.501 109.171 326.501C108.821 326.501 108.508 326.552 108.233 326.655C107.958 326.758 107.724 326.9 107.533 327.082C107.346 327.264 107.204 327.479 107.106 327.726C107.008 327.969 106.959 328.232 106.959 328.517ZM110.228 330.827C110.545 330.897 110.835 331.002 111.096 331.142C111.362 331.282 111.591 331.457 111.782 331.667C111.973 331.877 112.123 332.124 112.23 332.409C112.337 332.694 112.391 333.018 112.391 333.382C112.391 333.802 112.312 334.18 112.153 334.516C111.994 334.852 111.773 335.139 111.488 335.377C111.208 335.615 110.87 335.797 110.473 335.923C110.081 336.049 109.647 336.112 109.171 336.112C108.695 336.112 108.259 336.049 107.862 335.923C107.47 335.797 107.132 335.615 106.847 335.377C106.567 335.139 106.348 334.852 106.189 334.516C106.03 334.18 105.951 333.802 105.951 333.382C105.951 333.018 106.005 332.694 106.112 332.409C106.219 332.124 106.366 331.877 106.553 331.667C106.744 331.457 106.971 331.282 107.232 331.142C107.498 331.002 107.79 330.897 108.107 330.827C107.818 330.743 107.561 330.629 107.337 330.484C107.113 330.339 106.924 330.167 106.77 329.966C106.621 329.765 106.506 329.544 106.427 329.301C106.348 329.054 106.308 328.79 106.308 328.51C106.308 328.16 106.373 327.831 106.504 327.523C106.639 327.215 106.831 326.947 107.078 326.718C107.325 326.489 107.624 326.31 107.974 326.179C108.329 326.048 108.728 325.983 109.171 325.983C109.61 325.983 110.004 326.048 110.354 326.179C110.709 326.31 111.01 326.489 111.257 326.718C111.509 326.947 111.7 327.215 111.831 327.523C111.966 327.831 112.034 328.16 112.034 328.51C112.034 328.79 111.994 329.054 111.915 329.301C111.836 329.544 111.719 329.765 111.565 329.966C111.411 330.162 111.222 330.335 110.998 330.484C110.774 330.629 110.517 330.743 110.228 330.827ZM120.841 331.044C120.841 331.912 120.748 332.663 120.561 333.298C120.375 333.933 120.12 334.458 119.798 334.873C119.476 335.288 119.098 335.599 118.664 335.804C118.235 336.005 117.775 336.105 117.285 336.105C116.795 336.105 116.336 336.005 115.906 335.804C115.477 335.599 115.101 335.288 114.779 334.873C114.457 334.458 114.203 333.933 114.016 333.298C113.834 332.663 113.743 331.912 113.743 331.044C113.743 330.176 113.834 329.425 114.016 328.79C114.203 328.155 114.457 327.63 114.779 327.215C115.101 326.8 115.477 326.492 115.906 326.291C116.336 326.086 116.795 325.983 117.285 325.983C117.775 325.983 118.235 326.086 118.664 326.291C119.098 326.492 119.476 326.8 119.798 327.215C120.12 327.63 120.375 328.155 120.561 328.79C120.748 329.425 120.841 330.176 120.841 331.044ZM120.141 331.044C120.141 330.241 120.064 329.555 119.91 328.986C119.756 328.417 119.549 327.952 119.287 327.593C119.031 327.229 118.727 326.963 118.377 326.795C118.032 326.627 117.668 326.543 117.285 326.543C116.903 326.543 116.539 326.627 116.193 326.795C115.848 326.963 115.545 327.229 115.283 327.593C115.022 327.952 114.814 328.417 114.66 328.986C114.506 329.555 114.429 330.241 114.429 331.044C114.429 331.851 114.506 332.54 114.66 333.109C114.814 333.674 115.022 334.138 115.283 334.502C115.545 334.861 115.848 335.125 116.193 335.293C116.539 335.456 116.903 335.538 117.285 335.538C117.668 335.538 118.032 335.456 118.377 335.293C118.727 335.125 119.031 334.861 119.287 334.502C119.549 334.138 119.756 333.674 119.91 333.109C120.064 332.54 120.141 331.851 120.141 331.044ZM127.254 330.533C126.988 330.132 126.692 329.849 126.365 329.686C126.043 329.523 125.675 329.441 125.259 329.441C124.849 329.441 124.489 329.516 124.181 329.665C123.873 329.814 123.614 330.027 123.404 330.302C123.199 330.573 123.043 330.899 122.935 331.282C122.833 331.66 122.781 332.078 122.781 332.535C122.781 333.571 122.97 334.334 123.348 334.824C123.731 335.309 124.282 335.552 125 335.552C125.458 335.552 125.875 335.433 126.253 335.195C126.631 334.957 126.965 334.623 127.254 334.194V330.533ZM127.919 325.815V336H127.555C127.434 336 127.364 335.939 127.345 335.818L127.275 334.719C126.967 335.139 126.608 335.473 126.197 335.72C125.787 335.967 125.325 336.091 124.811 336.091C123.953 336.091 123.285 335.795 122.809 335.202C122.333 334.609 122.095 333.72 122.095 332.535C122.095 332.026 122.161 331.553 122.291 331.114C122.427 330.671 122.623 330.288 122.879 329.966C123.136 329.639 123.451 329.383 123.824 329.196C124.202 329.009 124.636 328.916 125.126 328.916C125.598 328.916 126.006 329.002 126.351 329.175C126.697 329.348 126.998 329.604 127.254 329.945V325.815H127.919Z" fill="white"/>
<path d="M204.222 299V305" stroke="white"/>
<path d="M199.691 326.095V326.396C199.691 326.475 199.682 326.545 199.663 326.606C199.645 326.662 199.624 326.711 199.6 326.753L195.064 335.748C195.027 335.823 194.976 335.883 194.91 335.93C194.85 335.977 194.768 336 194.665 336H194.203L198.781 327.04C198.842 326.919 198.914 326.809 198.998 326.711H193.286C193.235 326.711 193.191 326.692 193.153 326.655C193.116 326.618 193.097 326.573 193.097 326.522V326.095H199.691ZM207.952 331.044C207.952 331.912 207.859 332.663 207.672 333.298C207.486 333.933 207.231 334.458 206.909 334.873C206.587 335.288 206.209 335.599 205.775 335.804C205.346 336.005 204.886 336.105 204.396 336.105C203.906 336.105 203.447 336.005 203.017 335.804C202.588 335.599 202.212 335.288 201.89 334.873C201.568 334.458 201.314 333.933 201.127 333.298C200.945 332.663 200.854 331.912 200.854 331.044C200.854 330.176 200.945 329.425 201.127 328.79C201.314 328.155 201.568 327.63 201.89 327.215C202.212 326.8 202.588 326.492 203.017 326.291C203.447 326.086 203.906 325.983 204.396 325.983C204.886 325.983 205.346 326.086 205.775 326.291C206.209 326.492 206.587 326.8 206.909 327.215C207.231 327.63 207.486 328.155 207.672 328.79C207.859 329.425 207.952 330.176 207.952 331.044ZM207.252 331.044C207.252 330.241 207.175 329.555 207.021 328.986C206.867 328.417 206.66 327.952 206.398 327.593C206.142 327.229 205.838 326.963 205.488 326.795C205.143 326.627 204.779 326.543 204.396 326.543C204.014 326.543 203.65 326.627 203.304 326.795C202.959 326.963 202.656 327.229 202.394 327.593C202.133 327.952 201.925 328.417 201.771 328.986C201.617 329.555 201.54 330.241 201.54 331.044C201.54 331.851 201.617 332.54 201.771 333.109C201.925 333.674 202.133 334.138 202.394 334.502C202.656 334.861 202.959 335.125 203.304 335.293C203.65 335.456 204.014 335.538 204.396 335.538C204.779 335.538 205.143 335.456 205.488 335.293C205.838 335.125 206.142 334.861 206.398 334.502C206.66 334.138 206.867 333.674 207.021 333.109C207.175 332.54 207.252 331.851 207.252 331.044ZM214.365 330.533C214.099 330.132 213.803 329.849 213.476 329.686C213.154 329.523 212.786 329.441 212.37 329.441C211.96 329.441 211.6 329.516 211.292 329.665C210.984 329.814 210.725 330.027 210.515 330.302C210.31 330.573 210.154 330.899 210.046 331.282C209.944 331.66 209.892 332.078 209.892 332.535C209.892 333.571 210.081 334.334 210.459 334.824C210.842 335.309 211.393 335.552 212.111 335.552C212.569 335.552 212.986 335.433 213.364 335.195C213.742 334.957 214.076 334.623 214.365 334.194V330.533ZM215.03 325.815V336H214.666C214.545 336 214.475 335.939 214.456 335.818L214.386 334.719C214.078 335.139 213.719 335.473 213.308 335.72C212.898 335.967 212.436 336.091 211.922 336.091C211.064 336.091 210.396 335.795 209.92 335.202C209.444 334.609 209.206 333.72 209.206 332.535C209.206 332.026 209.272 331.553 209.402 331.114C209.538 330.671 209.734 330.288 209.99 329.966C210.247 329.639 210.562 329.383 210.935 329.196C211.313 329.009 211.747 328.916 212.237 328.916C212.709 328.916 213.117 329.002 213.462 329.175C213.808 329.348 214.109 329.604 214.365 329.945V325.815H215.03Z" fill="white"/>
<path d="M291.333 299V305" stroke="white"/>
<path d="M283.386 335.559C283.788 335.559 284.149 335.496 284.471 335.37C284.793 335.244 285.066 335.071 285.29 334.852C285.519 334.628 285.694 334.364 285.815 334.061C285.937 333.753 285.997 333.419 285.997 333.06C285.997 332.682 285.937 332.341 285.815 332.038C285.699 331.73 285.531 331.471 285.311 331.261C285.097 331.046 284.84 330.883 284.541 330.771C284.243 330.654 283.911 330.596 283.547 330.596C283.137 330.596 282.768 330.668 282.441 330.813C282.119 330.953 281.846 331.137 281.622 331.366C281.398 331.59 281.228 331.847 281.111 332.136C280.995 332.425 280.936 332.717 280.936 333.011C280.936 333.38 280.992 333.72 281.104 334.033C281.221 334.346 281.384 334.616 281.594 334.845C281.804 335.069 282.061 335.244 282.364 335.37C282.668 335.496 283.008 335.559 283.386 335.559ZM282.238 329.952C282.094 330.143 281.961 330.323 281.839 330.491C281.718 330.659 281.608 330.825 281.51 330.988C281.786 330.703 282.112 330.482 282.49 330.323C282.868 330.16 283.281 330.078 283.729 330.078C284.154 330.078 284.546 330.148 284.905 330.288C285.265 330.428 285.573 330.626 285.829 330.883C286.091 331.135 286.294 331.443 286.438 331.807C286.588 332.166 286.662 332.57 286.662 333.018C286.662 333.466 286.581 333.879 286.417 334.257C286.259 334.635 286.035 334.962 285.745 335.237C285.461 335.512 285.118 335.727 284.716 335.881C284.315 336.035 283.874 336.112 283.393 336.112C282.931 336.112 282.509 336.037 282.126 335.888C281.744 335.739 281.415 335.524 281.139 335.244C280.869 334.964 280.659 334.623 280.509 334.222C280.36 333.816 280.285 333.359 280.285 332.85C280.285 332.463 280.383 332.026 280.579 331.541C280.775 331.051 281.097 330.503 281.545 329.896L284.247 326.256C284.327 326.149 284.446 326.095 284.604 326.095H285.192L282.238 329.952ZM295.063 331.044C295.063 331.912 294.97 332.663 294.783 333.298C294.597 333.933 294.342 334.458 294.02 334.873C293.698 335.288 293.32 335.599 292.886 335.804C292.457 336.005 291.997 336.105 291.507 336.105C291.017 336.105 290.558 336.005 290.128 335.804C289.699 335.599 289.323 335.288 289.001 334.873C288.679 334.458 288.425 333.933 288.238 333.298C288.056 332.663 287.965 331.912 287.965 331.044C287.965 330.176 288.056 329.425 288.238 328.79C288.425 328.155 288.679 327.63 289.001 327.215C289.323 326.8 289.699 326.492 290.128 326.291C290.558 326.086 291.017 325.983 291.507 325.983C291.997 325.983 292.457 326.086 292.886 326.291C293.32 326.492 293.698 326.8 294.02 327.215C294.342 327.63 294.597 328.155 294.783 328.79C294.97 329.425 295.063 330.176 295.063 331.044ZM294.363 331.044C294.363 330.241 294.286 329.555 294.132 328.986C293.978 328.417 293.771 327.952 293.509 327.593C293.253 327.229 292.949 326.963 292.599 326.795C292.254 326.627 291.89 326.543 291.507 326.543C291.125 326.543 290.761 326.627 290.415 326.795C290.07 326.963 289.767 327.229 289.505 327.593C289.244 327.952 289.036 328.417 288.882 328.986C288.728 329.555 288.651 330.241 288.651 331.044C288.651 331.851 288.728 332.54 288.882 333.109C289.036 333.674 289.244 334.138 289.505 334.502C289.767 334.861 290.07 335.125 290.415 335.293C290.761 335.456 291.125 335.538 291.507 335.538C291.89 335.538 292.254 335.456 292.599 335.293C292.949 335.125 293.253 334.861 293.509 334.502C293.771 334.138 293.978 333.674 294.132 333.109C294.286 332.54 294.363 331.851 294.363 331.044ZM301.477 330.533C301.211 330.132 300.914 329.849 300.588 329.686C300.266 329.523 299.897 329.441 299.482 329.441C299.071 329.441 298.712 329.516 298.404 329.665C298.096 329.814 297.837 330.027 297.627 330.302C297.421 330.573 297.265 330.899 297.158 331.282C297.055 331.66 297.004 332.078 297.004 332.535C297.004 333.571 297.193 334.334 297.571 334.824C297.953 335.309 298.504 335.552 299.223 335.552C299.68 335.552 300.098 335.433 300.476 335.195C300.854 334.957 301.187 334.623 301.477 334.194V330.533ZM302.142 325.815V336H301.778C301.656 336 301.586 335.939 301.568 335.818L301.498 334.719C301.19 335.139 300.83 335.473 300.42 335.72C300.009 335.967 299.547 336.091 299.034 336.091C298.175 336.091 297.508 335.795 297.032 335.202C296.556 334.609 296.318 333.72 296.318 332.535C296.318 332.026 296.383 331.553 296.514 331.114C296.649 330.671 296.845 330.288 297.102 329.966C297.358 329.639 297.673 329.383 298.047 329.196C298.425 329.009 298.859 328.916 299.349 328.916C299.82 328.916 300.228 329.002 300.574 329.175C300.919 329.348 301.22 329.604 301.477 329.945V325.815H302.142Z" fill="white"/>
<path d="M378.444 299V305" stroke="white"/>
<path d="M368.614 330.015C368.927 329.936 369.221 329.88 369.496 329.847C369.776 329.81 370.042 329.791 370.294 329.791C370.812 329.791 371.267 329.866 371.659 330.015C372.051 330.16 372.378 330.365 372.639 330.631C372.905 330.892 373.104 331.205 373.234 331.569C373.37 331.933 373.437 332.33 373.437 332.759C373.437 333.282 373.346 333.751 373.164 334.166C372.987 334.577 372.742 334.927 372.429 335.216C372.117 335.505 371.753 335.727 371.337 335.881C370.922 336.035 370.481 336.112 370.014 336.112C369.744 336.112 369.482 336.086 369.23 336.035C368.983 335.988 368.75 335.925 368.53 335.846C368.316 335.762 368.115 335.666 367.928 335.559C367.746 335.452 367.585 335.342 367.445 335.23L367.648 334.957C367.69 334.887 367.756 334.852 367.844 334.852C367.905 334.852 367.991 334.887 368.103 334.957C368.22 335.027 368.367 335.104 368.544 335.188C368.726 335.272 368.941 335.349 369.188 335.419C369.436 335.489 369.723 335.524 370.049 335.524C370.432 335.524 370.789 335.463 371.12 335.342C371.452 335.216 371.739 335.036 371.981 334.803C372.224 334.57 372.413 334.283 372.548 333.942C372.688 333.597 372.758 333.207 372.758 332.773C372.758 332.418 372.705 332.092 372.597 331.793C372.495 331.494 372.336 331.24 372.121 331.03C371.911 330.815 371.643 330.65 371.316 330.533C370.994 330.412 370.614 330.351 370.175 330.351C369.909 330.351 369.627 330.372 369.328 330.414C369.03 330.456 368.712 330.524 368.376 330.617L367.949 330.484L368.719 326.095H373.178V326.382C373.178 326.475 373.146 326.555 373.08 326.62C373.02 326.681 372.922 326.711 372.786 326.711H369.202L368.614 330.015ZM382.175 331.044C382.175 331.912 382.081 332.663 381.895 333.298C381.708 333.933 381.454 334.458 381.132 334.873C380.81 335.288 380.432 335.599 379.998 335.804C379.568 336.005 379.109 336.105 378.619 336.105C378.129 336.105 377.669 336.005 377.24 335.804C376.81 335.599 376.435 335.288 376.113 334.873C375.791 334.458 375.536 333.933 375.35 333.298C375.168 332.663 375.077 331.912 375.077 331.044C375.077 330.176 375.168 329.425 375.35 328.79C375.536 328.155 375.791 327.63 376.113 327.215C376.435 326.8 376.81 326.492 377.24 326.291C377.669 326.086 378.129 325.983 378.619 325.983C379.109 325.983 379.568 326.086 379.998 326.291C380.432 326.492 380.81 326.8 381.132 327.215C381.454 327.63 381.708 328.155 381.895 328.79C382.081 329.425 382.175 330.176 382.175 331.044ZM381.475 331.044C381.475 330.241 381.398 329.555 381.244 328.986C381.09 328.417 380.882 327.952 380.621 327.593C380.364 327.229 380.061 326.963 379.711 326.795C379.365 326.627 379.001 326.543 378.619 326.543C378.236 326.543 377.872 326.627 377.527 326.795C377.181 326.963 376.878 327.229 376.617 327.593C376.355 327.952 376.148 328.417 375.994 328.986C375.84 329.555 375.763 330.241 375.763 331.044C375.763 331.851 375.84 332.54 375.994 333.109C376.148 333.674 376.355 334.138 376.617 334.502C376.878 334.861 377.181 335.125 377.527 335.293C377.872 335.456 378.236 335.538 378.619 335.538C379.001 335.538 379.365 335.456 379.711 335.293C380.061 335.125 380.364 334.861 380.621 334.502C380.882 334.138 381.09 333.674 381.244 333.109C381.398 332.54 381.475 331.851 381.475 331.044ZM388.588 330.533C388.322 330.132 388.025 329.849 387.699 329.686C387.377 329.523 387.008 329.441 386.593 329.441C386.182 329.441 385.823 329.516 385.515 329.665C385.207 329.814 384.948 330.027 384.738 330.302C384.532 330.573 384.376 330.899 384.269 331.282C384.166 331.66 384.115 332.078 384.115 332.535C384.115 333.571 384.304 334.334 384.682 334.824C385.064 335.309 385.615 335.552 386.334 335.552C386.791 335.552 387.209 335.433 387.587 335.195C387.965 334.957 388.298 334.623 388.588 334.194V330.533ZM389.253 325.815V336H388.889C388.767 336 388.697 335.939 388.679 335.818L388.609 334.719C388.301 335.139 387.941 335.473 387.531 335.72C387.12 335.967 386.658 336.091 386.145 336.091C385.286 336.091 384.619 335.795 384.143 335.202C383.667 334.609 383.429 333.72 383.429 332.535C383.429 332.026 383.494 331.553 383.625 331.114C383.76 330.671 383.956 330.288 384.213 329.966C384.469 329.639 384.784 329.383 385.158 329.196C385.536 329.009 385.97 328.916 386.46 328.916C386.931 328.916 387.339 329.002 387.685 329.175C388.03 329.348 388.331 329.604 388.588 329.945V325.815H389.253Z" fill="white"/>
<path d="M465.556 299V305" stroke="white"/>
<path d="M458.827 332.626V327.439C458.827 327.36 458.829 327.273 458.834 327.18C458.843 327.087 458.852 326.991 458.862 326.893L454.578 332.626H458.827ZM461.228 332.626V332.99C461.228 333.041 461.211 333.083 461.179 333.116C461.151 333.144 461.104 333.158 461.039 333.158H459.415V336H458.827V333.158H454.144C454.074 333.158 454.02 333.144 453.983 333.116C453.945 333.083 453.92 333.041 453.906 332.99L453.843 332.661L458.82 326.081H459.415V332.626H461.228ZM469.286 331.044C469.286 331.912 469.192 332.663 469.006 333.298C468.819 333.933 468.565 334.458 468.243 334.873C467.921 335.288 467.543 335.599 467.109 335.804C466.679 336.005 466.22 336.105 465.73 336.105C465.24 336.105 464.78 336.005 464.351 335.804C463.921 335.599 463.546 335.288 463.224 334.873C462.902 334.458 462.647 333.933 462.461 333.298C462.279 332.663 462.188 331.912 462.188 331.044C462.188 330.176 462.279 329.425 462.461 328.79C462.647 328.155 462.902 327.63 463.224 327.215C463.546 326.8 463.921 326.492 464.351 326.291C464.78 326.086 465.24 325.983 465.73 325.983C466.22 325.983 466.679 326.086 467.109 326.291C467.543 326.492 467.921 326.8 468.243 327.215C468.565 327.63 468.819 328.155 469.006 328.79C469.192 329.425 469.286 330.176 469.286 331.044ZM468.586 331.044C468.586 330.241 468.509 329.555 468.355 328.986C468.201 328.417 467.993 327.952 467.732 327.593C467.475 327.229 467.172 326.963 466.822 326.795C466.476 326.627 466.112 326.543 465.73 326.543C465.347 326.543 464.983 326.627 464.638 326.795C464.292 326.963 463.989 327.229 463.728 327.593C463.466 327.952 463.259 328.417 463.105 328.986C462.951 329.555 462.874 330.241 462.874 331.044C462.874 331.851 462.951 332.54 463.105 333.109C463.259 333.674 463.466 334.138 463.728 334.502C463.989 334.861 464.292 335.125 464.638 335.293C464.983 335.456 465.347 335.538 465.73 335.538C466.112 335.538 466.476 335.456 466.822 335.293C467.172 335.125 467.475 334.861 467.732 334.502C467.993 334.138 468.201 333.674 468.355 333.109C468.509 332.54 468.586 331.851 468.586 331.044ZM475.699 330.533C475.433 330.132 475.136 329.849 474.81 329.686C474.488 329.523 474.119 329.441 473.704 329.441C473.293 329.441 472.934 329.516 472.626 329.665C472.318 329.814 472.059 330.027 471.849 330.302C471.643 330.573 471.487 330.899 471.38 331.282C471.277 331.66 471.226 332.078 471.226 332.535C471.226 333.571 471.415 334.334 471.793 334.824C472.175 335.309 472.726 335.552 473.445 335.552C473.902 335.552 474.32 335.433 474.698 335.195C475.076 334.957 475.409 334.623 475.699 334.194V330.533ZM476.364 325.815V336H476C475.878 336 475.808 335.939 475.79 335.818L475.72 334.719C475.412 335.139 475.052 335.473 474.642 335.72C474.231 335.967 473.769 336.091 473.256 336.091C472.397 336.091 471.73 335.795 471.254 335.202C470.778 334.609 470.54 333.72 470.54 332.535C470.54 332.026 470.605 331.553 470.736 331.114C470.871 330.671 471.067 330.288 471.324 329.966C471.58 329.639 471.895 329.383 472.269 329.196C472.647 329.009 473.081 328.916 473.571 328.916C474.042 328.916 474.45 329.002 474.796 329.175C475.141 329.348 475.442 329.604 475.699 329.945V325.815H476.364Z" fill="white"/>
<path d="M552.667 299V305" stroke="white"/>
<path d="M541.759 328.657C541.819 328.232 541.936 327.854 542.109 327.523C542.281 327.192 542.501 326.912 542.767 326.683C543.033 326.454 543.341 326.282 543.691 326.165C544.041 326.044 544.419 325.983 544.825 325.983C545.203 325.983 545.56 326.037 545.896 326.144C546.232 326.247 546.526 326.403 546.778 326.613C547.034 326.823 547.235 327.084 547.38 327.397C547.529 327.71 547.604 328.071 547.604 328.482C547.604 328.804 547.555 329.096 547.457 329.357C547.359 329.614 547.221 329.84 547.044 330.036C546.871 330.232 546.666 330.398 546.428 330.533C546.19 330.664 545.931 330.764 545.651 330.834C546.379 330.969 546.927 331.252 547.296 331.681C547.669 332.106 547.856 332.638 547.856 333.277C547.856 333.683 547.774 334.061 547.611 334.411C547.447 334.756 547.223 335.055 546.939 335.307C546.654 335.559 546.318 335.757 545.931 335.902C545.543 336.042 545.123 336.112 544.671 336.112C544.106 336.112 543.635 336.037 543.257 335.888C542.883 335.734 542.575 335.536 542.333 335.293C542.09 335.05 541.901 334.78 541.766 334.481C541.63 334.178 541.521 333.877 541.437 333.578L541.703 333.466C541.777 333.433 541.854 333.424 541.934 333.438C542.018 333.452 542.078 333.506 542.116 333.599C542.139 333.655 542.169 333.744 542.207 333.865C542.249 333.982 542.307 334.112 542.382 334.257C542.456 334.402 542.552 334.551 542.669 334.705C542.79 334.854 542.939 334.992 543.117 335.118C543.299 335.244 543.516 335.347 543.768 335.426C544.02 335.505 544.318 335.545 544.664 335.545C545.084 335.545 545.45 335.475 545.763 335.335C546.08 335.195 546.344 335.018 546.554 334.803C546.768 334.584 546.927 334.341 547.03 334.075C547.137 333.804 547.191 333.543 547.191 333.291C547.191 332.988 547.142 332.705 547.044 332.444C546.95 332.183 546.792 331.959 546.568 331.772C546.344 331.581 546.047 331.431 545.679 331.324C545.315 331.212 544.864 331.156 544.328 331.156V330.673C544.757 330.664 545.135 330.608 545.462 330.505C545.788 330.398 546.061 330.253 546.281 330.071C546.5 329.889 546.666 329.672 546.778 329.42C546.89 329.168 546.946 328.89 546.946 328.587C546.946 328.237 546.887 327.934 546.771 327.677C546.654 327.42 546.498 327.208 546.302 327.04C546.106 326.872 545.877 326.748 545.616 326.669C545.354 326.59 545.081 326.55 544.797 326.55C544.484 326.55 544.195 326.599 543.929 326.697C543.663 326.79 543.427 326.923 543.222 327.096C543.021 327.264 542.853 327.467 542.718 327.705C542.582 327.938 542.489 328.195 542.438 328.475C542.41 328.578 542.37 328.645 542.319 328.678C542.267 328.711 542.195 328.722 542.102 328.713L541.759 328.657ZM556.397 331.044C556.397 331.912 556.304 332.663 556.117 333.298C555.93 333.933 555.676 334.458 555.354 334.873C555.032 335.288 554.654 335.599 554.22 335.804C553.791 336.005 553.331 336.105 552.841 336.105C552.351 336.105 551.891 336.005 551.462 335.804C551.033 335.599 550.657 335.288 550.335 334.873C550.013 334.458 549.759 333.933 549.572 333.298C549.39 332.663 549.299 331.912 549.299 331.044C549.299 330.176 549.39 329.425 549.572 328.79C549.759 328.155 550.013 327.63 550.335 327.215C550.657 326.8 551.033 326.492 551.462 326.291C551.891 326.086 552.351 325.983 552.841 325.983C553.331 325.983 553.791 326.086 554.22 326.291C554.654 326.492 555.032 326.8 555.354 327.215C555.676 327.63 555.93 328.155 556.117 328.79C556.304 329.425 556.397 330.176 556.397 331.044ZM555.697 331.044C555.697 330.241 555.62 329.555 555.466 328.986C555.312 328.417 555.104 327.952 554.843 327.593C554.586 327.229 554.283 326.963 553.933 326.795C553.588 326.627 553.224 326.543 552.841 326.543C552.458 326.543 552.094 326.627 551.749 326.795C551.404 326.963 551.1 327.229 550.839 327.593C550.578 327.952 550.37 328.417 550.216 328.986C550.062 329.555 549.985 330.241 549.985 331.044C549.985 331.851 550.062 332.54 550.216 333.109C550.37 333.674 550.578 334.138 550.839 334.502C551.1 334.861 551.404 335.125 551.749 335.293C552.094 335.456 552.458 335.538 552.841 335.538C553.224 335.538 553.588 335.456 553.933 335.293C554.283 335.125 554.586 334.861 554.843 334.502C555.104 334.138 555.312 333.674 555.466 333.109C555.62 332.54 555.697 331.851 555.697 331.044ZM562.81 330.533C562.544 330.132 562.248 329.849 561.921 329.686C561.599 329.523 561.23 329.441 560.815 329.441C560.404 329.441 560.045 329.516 559.737 329.665C559.429 329.814 559.17 330.027 558.96 330.302C558.755 330.573 558.598 330.899 558.491 331.282C558.388 331.66 558.337 332.078 558.337 332.535C558.337 333.571 558.526 334.334 558.904 334.824C559.287 335.309 559.837 335.552 560.556 335.552C561.013 335.552 561.431 335.433 561.809 335.195C562.187 334.957 562.521 334.623 562.81 334.194V330.533ZM563.475 325.815V336H563.111C562.99 336 562.92 335.939 562.901 335.818L562.831 334.719C562.523 335.139 562.164 335.473 561.753 335.72C561.342 335.967 560.88 336.091 560.367 336.091C559.508 336.091 558.841 335.795 558.365 335.202C557.889 334.609 557.651 333.72 557.651 332.535C557.651 332.026 557.716 331.553 557.847 331.114C557.982 330.671 558.178 330.288 558.435 329.966C558.692 329.639 559.007 329.383 559.38 329.196C559.758 329.009 560.192 328.916 560.682 328.916C561.153 328.916 561.562 329.002 561.907 329.175C562.252 329.348 562.553 329.604 562.81 329.945V325.815H563.475Z" fill="white"/>
<path d="M639.778 299V305" stroke="white"/>
<path d="M634.736 335.37C634.81 335.37 634.869 335.393 634.911 335.44C634.953 335.482 634.974 335.538 634.974 335.608V336H628.583V335.762C628.583 335.711 628.594 335.659 628.618 335.608C628.646 335.552 628.681 335.505 628.723 335.468L632.104 332.045C632.384 331.76 632.643 331.485 632.881 331.219C633.119 330.953 633.324 330.685 633.497 330.414C633.674 330.143 633.812 329.866 633.91 329.581C634.008 329.296 634.057 328.993 634.057 328.671C634.057 328.307 633.996 327.992 633.875 327.726C633.753 327.455 633.592 327.234 633.392 327.061C633.191 326.888 632.958 326.76 632.692 326.676C632.426 326.592 632.15 326.55 631.866 326.55C631.553 326.55 631.264 326.599 630.998 326.697C630.736 326.79 630.503 326.923 630.298 327.096C630.097 327.264 629.929 327.467 629.794 327.705C629.663 327.938 629.572 328.195 629.521 328.475C629.488 328.578 629.444 328.645 629.388 328.678C629.336 328.711 629.264 328.722 629.171 328.713L628.828 328.657C628.888 328.232 629.005 327.854 629.178 327.523C629.35 327.192 629.57 326.912 629.836 326.683C630.102 326.454 630.41 326.282 630.76 326.165C631.11 326.044 631.488 325.983 631.894 325.983C632.272 325.983 632.631 326.039 632.972 326.151C633.317 326.258 633.62 326.424 633.882 326.648C634.148 326.867 634.358 327.145 634.512 327.481C634.666 327.812 634.743 328.202 634.743 328.65C634.743 329.023 634.684 329.371 634.568 329.693C634.456 330.01 634.302 330.316 634.106 330.61C633.91 330.904 633.681 331.191 633.42 331.471C633.163 331.746 632.892 332.029 632.608 332.318L629.507 335.482C629.656 335.445 629.81 335.417 629.969 335.398C630.132 335.379 630.295 335.37 630.459 335.37H634.736ZM643.508 331.044C643.508 331.912 643.415 332.663 643.228 333.298C643.041 333.933 642.787 334.458 642.465 334.873C642.143 335.288 641.765 335.599 641.331 335.804C640.902 336.005 640.442 336.105 639.952 336.105C639.462 336.105 639.002 336.005 638.573 335.804C638.144 335.599 637.768 335.288 637.446 334.873C637.124 334.458 636.87 333.933 636.683 333.298C636.501 332.663 636.41 331.912 636.41 331.044C636.41 330.176 636.501 329.425 636.683 328.79C636.87 328.155 637.124 327.63 637.446 327.215C637.768 326.8 638.144 326.492 638.573 326.291C639.002 326.086 639.462 325.983 639.952 325.983C640.442 325.983 640.902 326.086 641.331 326.291C641.765 326.492 642.143 326.8 642.465 327.215C642.787 327.63 643.041 328.155 643.228 328.79C643.415 329.425 643.508 330.176 643.508 331.044ZM642.808 331.044C642.808 330.241 642.731 329.555 642.577 328.986C642.423 328.417 642.215 327.952 641.954 327.593C641.697 327.229 641.394 326.963 641.044 326.795C640.699 326.627 640.335 326.543 639.952 326.543C639.569 326.543 639.205 326.627 638.86 326.795C638.515 326.963 638.211 327.229 637.95 327.593C637.689 327.952 637.481 328.417 637.327 328.986C637.173 329.555 637.096 330.241 637.096 331.044C637.096 331.851 637.173 332.54 637.327 333.109C637.481 333.674 637.689 334.138 637.95 334.502C638.211 334.861 638.515 335.125 638.86 335.293C639.205 335.456 639.569 335.538 639.952 335.538C640.335 335.538 640.699 335.456 641.044 335.293C641.394 335.125 641.697 334.861 641.954 334.502C642.215 334.138 642.423 333.674 642.577 333.109C642.731 332.54 642.808 331.851 642.808 331.044ZM649.921 330.533C649.655 330.132 649.359 329.849 649.032 329.686C648.71 329.523 648.341 329.441 647.926 329.441C647.515 329.441 647.156 329.516 646.848 329.665C646.54 329.814 646.281 330.027 646.071 330.302C645.866 330.573 645.709 330.899 645.602 331.282C645.499 331.66 645.448 332.078 645.448 332.535C645.448 333.571 645.637 334.334 646.015 334.824C646.398 335.309 646.948 335.552 647.667 335.552C648.124 335.552 648.542 335.433 648.92 335.195C649.298 334.957 649.632 334.623 649.921 334.194V330.533ZM650.586 325.815V336H650.222C650.101 336 650.031 335.939 650.012 335.818L649.942 334.719C649.634 335.139 649.275 335.473 648.864 335.72C648.453 335.967 647.991 336.091 647.478 336.091C646.619 336.091 645.952 335.795 645.476 335.202C645 334.609 644.762 333.72 644.762 332.535C644.762 332.026 644.827 331.553 644.958 331.114C645.093 330.671 645.289 330.288 645.546 329.966C645.803 329.639 646.118 329.383 646.491 329.196C646.869 329.009 647.303 328.916 647.793 328.916C648.264 328.916 648.673 329.002 649.018 329.175C649.363 329.348 649.664 329.604 649.921 329.945V325.815H650.586Z" fill="white"/>
<path d="M726.889 299V305" stroke="white"/>
<path d="M721.868 335.482V336H716.758V335.482H719.033V327.446C719.033 327.287 719.04 327.119 719.054 326.942L716.87 328.881C716.805 328.937 716.739 328.958 716.674 328.944C716.609 328.93 716.557 328.902 716.52 328.86L716.317 328.58L719.18 326.053H719.705V335.482H721.868ZM730.619 331.044C730.619 331.912 730.526 332.663 730.339 333.298C730.152 333.933 729.898 334.458 729.576 334.873C729.254 335.288 728.876 335.599 728.442 335.804C728.013 336.005 727.553 336.105 727.063 336.105C726.573 336.105 726.113 336.005 725.684 335.804C725.255 335.599 724.879 335.288 724.557 334.873C724.235 334.458 723.981 333.933 723.794 333.298C723.612 332.663 723.521 331.912 723.521 331.044C723.521 330.176 723.612 329.425 723.794 328.79C723.981 328.155 724.235 327.63 724.557 327.215C724.879 326.8 725.255 326.492 725.684 326.291C726.113 326.086 726.573 325.983 727.063 325.983C727.553 325.983 728.013 326.086 728.442 326.291C728.876 326.492 729.254 326.8 729.576 327.215C729.898 327.63 730.152 328.155 730.339 328.79C730.526 329.425 730.619 330.176 730.619 331.044ZM729.919 331.044C729.919 330.241 729.842 329.555 729.688 328.986C729.534 328.417 729.326 327.952 729.065 327.593C728.808 327.229 728.505 326.963 728.155 326.795C727.81 326.627 727.446 326.543 727.063 326.543C726.68 326.543 726.316 326.627 725.971 326.795C725.626 326.963 725.322 327.229 725.061 327.593C724.8 327.952 724.592 328.417 724.438 328.986C724.284 329.555 724.207 330.241 724.207 331.044C724.207 331.851 724.284 332.54 724.438 333.109C724.592 333.674 724.8 334.138 725.061 334.502C725.322 334.861 725.626 335.125 725.971 335.293C726.316 335.456 726.68 335.538 727.063 335.538C727.446 335.538 727.81 335.456 728.155 335.293C728.505 335.125 728.808 334.861 729.065 334.502C729.326 334.138 729.534 333.674 729.688 333.109C729.842 332.54 729.919 331.851 729.919 331.044ZM737.032 330.533C736.766 330.132 736.47 329.849 736.143 329.686C735.821 329.523 735.452 329.441 735.037 329.441C734.626 329.441 734.267 329.516 733.959 329.665C733.651 329.814 733.392 330.027 733.182 330.302C732.977 330.573 732.82 330.899 732.713 331.282C732.61 331.66 732.559 332.078 732.559 332.535C732.559 333.571 732.748 334.334 733.126 334.824C733.509 335.309 734.059 335.552 734.778 335.552C735.235 335.552 735.653 335.433 736.031 335.195C736.409 334.957 736.743 334.623 737.032 334.194V330.533ZM737.697 325.815V336H737.333C737.212 336 737.142 335.939 737.123 335.818L737.053 334.719C736.745 335.139 736.386 335.473 735.975 335.72C735.564 335.967 735.102 336.091 734.589 336.091C733.73 336.091 733.063 335.795 732.587 335.202C732.111 334.609 731.873 333.72 731.873 332.535C731.873 332.026 731.938 331.553 732.069 331.114C732.204 330.671 732.4 330.288 732.657 329.966C732.914 329.639 733.229 329.383 733.602 329.196C733.98 329.009 734.414 328.916 734.904 328.916C735.375 328.916 735.784 329.002 736.129 329.175C736.474 329.348 736.775 329.604 737.032 329.945V325.815H737.697Z" fill="white"/>
<path d="M810 299V305" stroke="white"/>
<path d="M808.979 335.482V336H803.869V335.482H806.144V327.446C806.144 327.287 806.151 327.119 806.165 326.942L803.981 328.881C803.916 328.937 803.85 328.958 803.785 328.944C803.72 328.93 803.668 328.902 803.631 328.86L803.428 328.58L806.291 326.053H806.816V335.482H808.979ZM816.022 330.533C815.756 330.132 815.46 329.849 815.133 329.686C814.811 329.523 814.442 329.441 814.027 329.441C813.616 329.441 813.257 329.516 812.949 329.665C812.641 329.814 812.382 330.027 812.172 330.302C811.967 330.573 811.81 330.899 811.703 331.282C811.6 331.66 811.549 332.078 811.549 332.535C811.549 333.571 811.738 334.334 812.116 334.824C812.499 335.309 813.049 335.552 813.768 335.552C814.225 335.552 814.643 335.433 815.021 335.195C815.399 334.957 815.733 334.623 816.022 334.194V330.533ZM816.687 325.815V336H816.323C816.202 336 816.132 335.939 816.113 335.818L816.043 334.719C815.735 335.139 815.376 335.473 814.965 335.72C814.554 335.967 814.092 336.091 813.579 336.091C812.72 336.091 812.053 335.795 811.577 335.202C811.101 334.609 810.863 333.72 810.863 332.535C810.863 332.026 810.928 331.553 811.059 331.114C811.194 330.671 811.39 330.288 811.647 329.966C811.904 329.639 812.219 329.383 812.592 329.196C812.97 329.009 813.404 328.916 813.894 328.916C814.365 328.916 814.774 329.002 815.119 329.175C815.464 329.348 815.765 329.604 816.022 329.945V325.815H816.687Z" fill="white"/>
<path d="M278 27H558V347H278V27Z" fill="url(#paint0_linear_959_10115)" fill-opacity="0.3"/>
<line x1="378.5" y1="27" x2="378.5" y2="300" stroke="white"/>
<circle cx="378.5" cy="238.5" r="6.5" fill="white"/>
<circle opacity="0.16" cx="378.5" cy="238.5" r="12.5" fill="white"/>
<rect x="321" y="83" width="115" height="56" rx="12" fill="white"/>
<path d="M335.56 99.015C335.872 98.9357 336.166 98.8797 336.442 98.847C336.722 98.8097 336.988 98.791 337.24 98.791C337.758 98.791 338.213 98.8657 338.605 99.015C338.997 99.1597 339.323 99.365 339.585 99.631C339.851 99.8923 340.049 100.205 340.18 100.569C340.315 100.933 340.383 101.33 340.383 101.759C340.383 102.282 340.292 102.751 340.11 103.166C339.932 103.577 339.687 103.927 339.375 104.216C339.062 104.505 338.698 104.727 338.283 104.881C337.867 105.035 337.426 105.112 336.96 105.112C336.689 105.112 336.428 105.086 336.176 105.035C335.928 104.988 335.695 104.925 335.476 104.846C335.261 104.762 335.06 104.666 334.874 104.559C334.692 104.452 334.531 104.342 334.391 104.23L334.594 103.957C334.636 103.887 334.701 103.852 334.79 103.852C334.85 103.852 334.937 103.887 335.049 103.957C335.165 104.027 335.312 104.104 335.49 104.188C335.672 104.272 335.886 104.349 336.134 104.419C336.381 104.489 336.668 104.524 336.995 104.524C337.377 104.524 337.734 104.463 338.066 104.342C338.397 104.216 338.684 104.036 338.927 103.803C339.169 103.57 339.358 103.283 339.494 102.942C339.634 102.597 339.704 102.207 339.704 101.773C339.704 101.418 339.65 101.092 339.543 100.793C339.44 100.494 339.281 100.24 339.067 100.03C338.857 99.8153 338.588 99.6497 338.262 99.533C337.94 99.4117 337.559 99.351 337.121 99.351C336.855 99.351 336.572 99.372 336.274 99.414C335.975 99.456 335.658 99.5237 335.322 99.617L334.895 99.484L335.665 95.095H340.124V95.382C340.124 95.4753 340.091 95.5547 340.026 95.62C339.965 95.6807 339.867 95.711 339.732 95.711H336.148L335.56 99.015ZM349.12 100.044C349.12 100.912 349.026 101.663 348.84 102.298C348.653 102.933 348.399 103.458 348.077 103.873C347.755 104.288 347.377 104.599 346.943 104.804C346.513 105.005 346.054 105.105 345.564 105.105C345.074 105.105 344.614 105.005 344.185 104.804C343.755 104.599 343.38 104.288 343.058 103.873C342.736 103.458 342.481 102.933 342.295 102.298C342.113 101.663 342.022 100.912 342.022 100.044C342.022 99.176 342.113 98.4247 342.295 97.79C342.481 97.1553 342.736 96.6303 343.058 96.215C343.38 95.7997 343.755 95.4917 344.185 95.291C344.614 95.0857 345.074 94.983 345.564 94.983C346.054 94.983 346.513 95.0857 346.943 95.291C347.377 95.4917 347.755 95.7997 348.077 96.215C348.399 96.6303 348.653 97.1553 348.84 97.79C349.026 98.4247 349.12 99.176 349.12 100.044ZM348.42 100.044C348.42 99.2413 348.343 98.5553 348.189 97.986C348.035 97.4167 347.827 96.9523 347.566 96.593C347.309 96.229 347.006 95.963 346.656 95.795C346.31 95.627 345.946 95.543 345.564 95.543C345.181 95.543 344.817 95.627 344.472 95.795C344.126 95.963 343.823 96.229 343.562 96.593C343.3 96.9523 343.093 97.4167 342.939 97.986C342.785 98.5553 342.708 99.2413 342.708 100.044C342.708 100.851 342.785 101.54 342.939 102.109C343.093 102.674 343.3 103.138 343.562 103.502C343.823 103.861 344.126 104.125 344.472 104.293C344.817 104.456 345.181 104.538 345.564 104.538C345.946 104.538 346.31 104.456 346.656 104.293C347.006 104.125 347.309 103.861 347.566 103.502C347.827 103.138 348.035 102.674 348.189 102.109C348.343 101.54 348.42 100.851 348.42 100.044ZM359.334 99.533C359.068 99.1317 358.771 98.8493 358.445 98.686C358.123 98.5227 357.754 98.441 357.339 98.441C356.928 98.441 356.569 98.5157 356.261 98.665C355.953 98.8143 355.694 99.0267 355.484 99.302C355.278 99.5727 355.122 99.8993 355.015 100.282C354.912 100.66 354.861 101.078 354.861 101.535C354.861 102.571 355.05 103.334 355.428 103.824C355.81 104.309 356.361 104.552 357.08 104.552C357.537 104.552 357.955 104.433 358.333 104.195C358.711 103.957 359.044 103.623 359.334 103.194V99.533ZM359.999 94.815V105H359.635C359.513 105 359.443 104.939 359.425 104.818L359.355 103.719C359.047 104.139 358.687 104.473 358.277 104.72C357.866 104.967 357.404 105.091 356.891 105.091C356.032 105.091 355.365 104.795 354.889 104.202C354.413 103.609 354.175 102.72 354.175 101.535C354.175 101.026 354.24 100.553 354.371 100.114C354.506 99.6707 354.702 99.288 354.959 98.966C355.215 98.6393 355.53 98.3827 355.904 98.196C356.282 98.0093 356.716 97.916 357.206 97.916C357.677 97.916 358.085 98.0023 358.431 98.175C358.776 98.3477 359.077 98.6043 359.334 98.945V94.815H359.999ZM366.191 101.633C365.528 101.656 364.956 101.71 364.476 101.794C364 101.873 363.605 101.983 363.293 102.123C362.985 102.263 362.756 102.431 362.607 102.627C362.457 102.818 362.383 103.038 362.383 103.285C362.383 103.518 362.42 103.721 362.495 103.894C362.574 104.062 362.677 104.202 362.803 104.314C362.933 104.421 363.083 104.501 363.251 104.552C363.419 104.603 363.594 104.629 363.776 104.629C364.046 104.629 364.294 104.601 364.518 104.545C364.746 104.484 364.956 104.403 365.148 104.3C365.344 104.193 365.526 104.067 365.694 103.922C365.862 103.777 366.027 103.621 366.191 103.453V101.633ZM362.096 99.022C362.46 98.658 362.842 98.3827 363.244 98.196C363.645 98.0093 364.1 97.916 364.609 97.916C364.982 97.916 365.309 97.9767 365.589 98.098C365.869 98.2147 366.1 98.385 366.282 98.609C366.468 98.8283 366.608 99.0967 366.702 99.414C366.795 99.7267 366.842 100.077 366.842 100.464V105H366.576C366.436 105 366.349 104.935 366.317 104.804L366.219 103.908C366.027 104.095 365.836 104.263 365.645 104.412C365.458 104.561 365.262 104.687 365.057 104.79C364.851 104.893 364.63 104.972 364.392 105.028C364.154 105.084 363.892 105.112 363.608 105.112C363.37 105.112 363.139 105.077 362.915 105.007C362.691 104.937 362.49 104.83 362.313 104.685C362.14 104.54 362 104.356 361.893 104.132C361.79 103.903 361.739 103.63 361.739 103.313C361.739 103.019 361.823 102.746 361.991 102.494C362.159 102.242 362.422 102.023 362.782 101.836C363.141 101.649 363.601 101.5 364.161 101.388C364.725 101.276 365.402 101.211 366.191 101.192V100.464C366.191 99.82 366.051 99.3253 365.771 98.98C365.495 98.63 365.085 98.455 364.539 98.455C364.203 98.455 363.916 98.5017 363.678 98.595C363.444 98.6883 363.246 98.791 363.083 98.903C362.919 99.015 362.786 99.1177 362.684 99.211C362.581 99.3043 362.495 99.351 362.425 99.351C362.373 99.351 362.331 99.3393 362.299 99.316C362.266 99.2927 362.238 99.2623 362.215 99.225L362.096 99.022ZM374.578 98.035L370.574 107.24C370.546 107.305 370.508 107.359 370.462 107.401C370.42 107.443 370.357 107.464 370.273 107.464H369.797L371.022 104.741L368.075 98.035H368.628C368.698 98.035 368.754 98.0537 368.796 98.091C368.838 98.1237 368.866 98.161 368.88 98.203L371.225 103.621C371.253 103.691 371.276 103.763 371.295 103.838C371.318 103.908 371.339 103.98 371.358 104.055C371.381 103.98 371.404 103.908 371.428 103.838C371.456 103.763 371.484 103.691 371.512 103.621L373.829 98.203C373.852 98.1517 373.885 98.112 373.927 98.084C373.969 98.0513 374.015 98.035 374.067 98.035H374.578ZM379.71 98.896C379.673 98.9613 379.619 98.994 379.549 98.994C379.498 98.994 379.433 98.966 379.353 98.91C379.274 98.8493 379.167 98.784 379.031 98.714C378.901 98.6393 378.737 98.574 378.541 98.518C378.345 98.4573 378.107 98.427 377.827 98.427C377.575 98.427 377.344 98.4643 377.134 98.539C376.929 98.609 376.752 98.7047 376.602 98.826C376.458 98.9473 376.346 99.0897 376.266 99.253C376.187 99.4117 376.147 99.5797 376.147 99.757C376.147 99.9763 376.203 100.158 376.315 100.303C376.427 100.448 376.572 100.571 376.749 100.674C376.931 100.777 377.139 100.865 377.372 100.94C377.606 101.015 377.841 101.089 378.079 101.164C378.322 101.239 378.56 101.323 378.793 101.416C379.027 101.505 379.232 101.617 379.409 101.752C379.591 101.887 379.738 102.053 379.85 102.249C379.962 102.445 380.018 102.683 380.018 102.963C380.018 103.266 379.965 103.549 379.857 103.81C379.75 104.071 379.591 104.298 379.381 104.489C379.176 104.68 378.922 104.832 378.618 104.944C378.315 105.056 377.967 105.112 377.575 105.112C377.085 105.112 376.663 105.035 376.308 104.881C375.954 104.722 375.636 104.517 375.356 104.265L375.51 104.027C375.534 103.99 375.559 103.962 375.587 103.943C375.62 103.924 375.662 103.915 375.713 103.915C375.774 103.915 375.846 103.952 375.93 104.027C376.019 104.102 376.136 104.183 376.28 104.272C376.425 104.356 376.602 104.435 376.812 104.51C377.027 104.585 377.291 104.622 377.603 104.622C377.897 104.622 378.156 104.582 378.38 104.503C378.604 104.419 378.791 104.307 378.94 104.167C379.09 104.027 379.202 103.864 379.276 103.677C379.356 103.486 379.395 103.285 379.395 103.075C379.395 102.842 379.339 102.648 379.227 102.494C379.115 102.34 378.968 102.209 378.786 102.102C378.604 101.995 378.397 101.904 378.163 101.829C377.935 101.754 377.699 101.68 377.456 101.605C377.214 101.53 376.976 101.449 376.742 101.36C376.514 101.271 376.308 101.159 376.126 101.024C375.944 100.889 375.797 100.725 375.685 100.534C375.573 100.338 375.517 100.095 375.517 99.806C375.517 99.5587 375.571 99.3207 375.678 99.092C375.786 98.8633 375.937 98.6627 376.133 98.49C376.334 98.3173 376.577 98.1797 376.861 98.077C377.146 97.9743 377.466 97.923 377.82 97.923C378.245 97.923 378.621 97.9837 378.947 98.105C379.279 98.2263 379.58 98.413 379.85 98.665L379.71 98.896ZM386.301 103.481C386.572 103.882 386.868 104.165 387.19 104.328C387.517 104.487 387.883 104.566 388.289 104.566C388.705 104.566 389.066 104.491 389.374 104.342C389.687 104.193 389.946 103.98 390.151 103.705C390.361 103.425 390.518 103.087 390.62 102.69C390.723 102.293 390.774 101.848 390.774 101.353C390.774 100.392 390.583 99.6683 390.2 99.183C389.818 98.6977 389.281 98.455 388.59 98.455C388.096 98.455 387.664 98.574 387.295 98.812C386.927 99.05 386.595 99.3813 386.301 99.806V103.481ZM386.301 99.246C386.605 98.8353 386.959 98.5133 387.365 98.28C387.771 98.042 388.243 97.923 388.779 97.923C389.199 97.923 389.575 98 389.906 98.154C390.238 98.308 390.518 98.5297 390.746 98.819C390.98 99.1083 391.157 99.4653 391.278 99.89C391.4 100.31 391.46 100.788 391.46 101.325C391.46 101.89 391.393 102.405 391.257 102.872C391.122 103.334 390.924 103.731 390.662 104.062C390.406 104.389 390.091 104.643 389.717 104.825C389.344 105.002 388.917 105.091 388.436 105.091C387.942 105.091 387.519 104.998 387.169 104.811C386.824 104.62 386.525 104.337 386.273 103.964L386.224 104.825C386.21 104.942 386.147 105 386.035 105H385.629V94.815H386.301V99.246ZM398.226 100.814C398.226 100.441 398.173 100.107 398.065 99.813C397.963 99.5143 397.816 99.2623 397.624 99.057C397.433 98.8517 397.204 98.6953 396.938 98.588C396.677 98.476 396.388 98.42 396.07 98.42C395.711 98.42 395.389 98.476 395.104 98.588C394.82 98.7 394.572 98.861 394.362 99.071C394.157 99.281 393.991 99.533 393.865 99.827C393.739 100.121 393.655 100.45 393.613 100.814H398.226ZM393.578 101.241V101.374C393.578 101.897 393.639 102.356 393.76 102.753C393.882 103.15 394.054 103.483 394.278 103.754C394.502 104.02 394.773 104.221 395.09 104.356C395.408 104.491 395.762 104.559 396.154 104.559C396.504 104.559 396.808 104.522 397.064 104.447C397.321 104.368 397.536 104.281 397.708 104.188C397.886 104.09 398.026 104.004 398.128 103.929C398.231 103.85 398.306 103.81 398.352 103.81C398.413 103.81 398.46 103.833 398.492 103.88L398.674 104.104C398.562 104.244 398.413 104.375 398.226 104.496C398.044 104.617 397.839 104.722 397.61 104.811C397.386 104.895 397.144 104.963 396.882 105.014C396.626 105.065 396.367 105.091 396.105 105.091C395.629 105.091 395.195 105.009 394.803 104.846C394.411 104.678 394.075 104.435 393.795 104.118C393.515 103.801 393.298 103.413 393.144 102.956C392.995 102.494 392.92 101.967 392.92 101.374C392.92 100.875 392.99 100.415 393.13 99.995C393.275 99.5703 393.48 99.2063 393.746 98.903C394.017 98.595 394.346 98.3547 394.733 98.182C395.125 98.0093 395.569 97.923 396.063 97.923C396.455 97.923 396.819 97.9907 397.155 98.126C397.491 98.2613 397.783 98.4597 398.03 98.721C398.278 98.9777 398.471 99.295 398.611 99.673C398.756 100.051 398.828 100.485 398.828 100.975C398.828 101.078 398.814 101.148 398.786 101.185C398.758 101.222 398.712 101.241 398.646 101.241H393.578ZM401.013 105V98.763L400.033 98.7C399.902 98.686 399.837 98.6277 399.837 98.525V98.252H401.013V97.37C401.013 96.9733 401.064 96.6257 401.167 96.327C401.27 96.0237 401.414 95.7717 401.601 95.571C401.788 95.3703 402.012 95.221 402.273 95.123C402.534 95.0203 402.824 94.969 403.141 94.969C403.286 94.969 403.43 94.983 403.575 95.011C403.724 95.0343 403.857 95.0693 403.974 95.116L403.953 95.438C403.944 95.48 403.923 95.508 403.89 95.522C403.862 95.5313 403.82 95.536 403.764 95.536C403.708 95.5313 403.636 95.5243 403.547 95.515C403.458 95.501 403.356 95.494 403.239 95.494C403.01 95.494 402.798 95.529 402.602 95.599C402.411 95.6643 402.245 95.7717 402.105 95.921C401.965 96.0703 401.855 96.2663 401.776 96.509C401.701 96.747 401.664 97.041 401.664 97.391V98.252H403.925V98.749H401.685V105H401.013ZM407.856 97.923C408.356 97.923 408.801 98.0093 409.193 98.182C409.59 98.35 409.924 98.5903 410.194 98.903C410.465 99.2157 410.67 99.5937 410.81 100.037C410.955 100.476 411.027 100.968 411.027 101.514C411.027 102.06 410.955 102.552 410.81 102.991C410.67 103.43 410.465 103.805 410.194 104.118C409.924 104.431 409.59 104.671 409.193 104.839C408.801 105.007 408.356 105.091 407.856 105.091C407.357 105.091 406.909 105.007 406.512 104.839C406.12 104.671 405.787 104.431 405.511 104.118C405.241 103.805 405.033 103.43 404.888 102.991C404.748 102.552 404.678 102.06 404.678 101.514C404.678 100.968 404.748 100.476 404.888 100.037C405.033 99.5937 405.241 99.2157 405.511 98.903C405.787 98.5903 406.12 98.35 406.512 98.182C406.909 98.0093 407.357 97.923 407.856 97.923ZM407.856 104.566C408.272 104.566 408.633 104.496 408.941 104.356C409.254 104.211 409.513 104.006 409.718 103.74C409.928 103.474 410.085 103.154 410.187 102.781C410.29 102.403 410.341 101.981 410.341 101.514C410.341 101.052 410.29 100.632 410.187 100.254C410.085 99.876 409.928 99.554 409.718 99.288C409.513 99.0173 409.254 98.8097 408.941 98.665C408.633 98.5203 408.272 98.448 407.856 98.448C407.441 98.448 407.077 98.5203 406.764 98.665C406.456 98.8097 406.197 99.0173 405.987 99.288C405.782 99.554 405.626 99.876 405.518 100.254C405.416 100.632 405.364 101.052 405.364 101.514C405.364 101.981 405.416 102.403 405.518 102.781C405.626 103.154 405.782 103.474 405.987 103.74C406.197 104.006 406.456 104.211 406.764 104.356C407.077 104.496 407.441 104.566 407.856 104.566ZM413.542 99.715C413.649 99.4303 413.771 99.1783 413.906 98.959C414.046 98.735 414.205 98.546 414.382 98.392C414.564 98.238 414.765 98.1213 414.984 98.042C415.208 97.958 415.455 97.916 415.726 97.916C415.871 97.916 416.013 97.93 416.153 97.958C416.293 97.9813 416.417 98.0257 416.524 98.091L416.468 98.553C416.445 98.6277 416.4 98.665 416.335 98.665C416.279 98.665 416.193 98.6487 416.076 98.616C415.964 98.5833 415.815 98.567 415.628 98.567C415.357 98.567 415.117 98.609 414.907 98.693C414.702 98.7723 414.515 98.8937 414.347 99.057C414.184 99.2203 414.039 99.4233 413.913 99.666C413.792 99.904 413.68 100.179 413.577 100.492V105H412.905V98.035H413.262C413.341 98.035 413.397 98.0513 413.43 98.084C413.463 98.1167 413.484 98.1727 413.493 98.252L413.542 99.715ZM422.344 100.814C422.344 100.441 422.29 100.107 422.183 99.813C422.08 99.5143 421.933 99.2623 421.742 99.057C421.55 98.8517 421.322 98.6953 421.056 98.588C420.794 98.476 420.505 98.42 420.188 98.42C419.828 98.42 419.506 98.476 419.222 98.588C418.937 98.7 418.69 98.861 418.48 99.071C418.274 99.281 418.109 99.533 417.983 99.827C417.857 100.121 417.773 100.45 417.731 100.814H422.344ZM417.696 101.241V101.374C417.696 101.897 417.756 102.356 417.878 102.753C417.999 103.15 418.172 103.483 418.396 103.754C418.62 104.02 418.89 104.221 419.208 104.356C419.525 104.491 419.88 104.559 420.272 104.559C420.622 104.559 420.925 104.522 421.182 104.447C421.438 104.368 421.653 104.281 421.826 104.188C422.003 104.09 422.143 104.004 422.246 103.929C422.348 103.85 422.423 103.81 422.47 103.81C422.53 103.81 422.577 103.833 422.61 103.88L422.792 104.104C422.68 104.244 422.53 104.375 422.344 104.496C422.162 104.617 421.956 104.722 421.728 104.811C421.504 104.895 421.261 104.963 421 105.014C420.743 105.065 420.484 105.091 420.223 105.091C419.747 105.091 419.313 105.009 418.921 104.846C418.529 104.678 418.193 104.435 417.913 104.118C417.633 103.801 417.416 103.413 417.262 102.956C417.112 102.494 417.038 101.967 417.038 101.374C417.038 100.875 417.108 100.415 417.248 99.995C417.392 99.5703 417.598 99.2063 417.864 98.903C418.134 98.595 418.463 98.3547 418.851 98.182C419.243 98.0093 419.686 97.923 420.181 97.923C420.573 97.923 420.937 97.9907 421.273 98.126C421.609 98.2613 421.9 98.4597 422.148 98.721C422.395 98.9777 422.589 99.295 422.729 99.673C422.873 100.051 422.946 100.485 422.946 100.975C422.946 101.078 422.932 101.148 422.904 101.185C422.876 101.222 422.829 101.241 422.764 101.241H417.696Z" fill="black"/>
<path d="M366.675 127.649C367.169 127.584 367.543 127.418 367.795 127.152C368.051 126.881 368.18 126.529 368.18 126.095C368.18 125.918 368.147 125.764 368.082 125.633C368.021 125.498 367.932 125.379 367.816 125.276C367.704 125.173 367.571 125.085 367.417 125.01C367.263 124.935 367.095 124.865 366.913 124.8L366.675 127.649ZM366.227 120.25C365.965 120.283 365.744 120.339 365.562 120.418C365.38 120.493 365.23 120.586 365.114 120.698C364.997 120.81 364.911 120.936 364.855 121.076C364.803 121.216 364.778 121.363 364.778 121.517C364.778 121.694 364.808 121.851 364.869 121.986C364.934 122.117 365.02 122.236 365.128 122.343C365.24 122.446 365.37 122.539 365.52 122.623C365.669 122.702 365.832 122.777 366.01 122.847L366.227 120.25ZM367.046 123.183C367.382 123.286 367.715 123.4 368.047 123.526C368.378 123.647 368.674 123.806 368.936 124.002C369.202 124.198 369.416 124.443 369.58 124.737C369.743 125.026 369.825 125.39 369.825 125.829C369.825 126.263 369.752 126.671 369.608 127.054C369.463 127.432 369.251 127.768 368.971 128.062C368.691 128.351 368.348 128.589 367.942 128.776C367.536 128.958 367.071 129.065 366.549 129.098L366.465 130.127C366.46 130.234 366.413 130.332 366.325 130.421C366.241 130.514 366.133 130.561 366.003 130.561H365.366L365.492 129.063C364.946 128.988 364.432 128.839 363.952 128.615C363.471 128.391 363.063 128.113 362.727 127.782L363.259 126.991C363.305 126.921 363.366 126.865 363.441 126.823C363.52 126.776 363.604 126.753 363.693 126.753C363.795 126.753 363.905 126.79 364.022 126.865C364.138 126.935 364.271 127.019 364.421 127.117C364.57 127.21 364.74 127.306 364.932 127.404C365.123 127.502 365.349 127.574 365.611 127.621L365.87 124.492C365.538 124.399 365.209 124.289 364.883 124.163C364.561 124.037 364.269 123.871 364.008 123.666C363.751 123.456 363.543 123.192 363.385 122.875C363.226 122.558 363.147 122.161 363.147 121.685C363.147 121.33 363.217 120.985 363.357 120.649C363.497 120.308 363.702 120.005 363.973 119.739C364.248 119.473 364.584 119.254 364.981 119.081C365.377 118.908 365.832 118.81 366.346 118.787L366.423 117.905C366.432 117.793 366.479 117.693 366.563 117.604C366.647 117.515 366.756 117.471 366.892 117.471H367.529L367.417 118.843C367.911 118.922 368.338 119.065 368.698 119.27C369.057 119.471 369.367 119.697 369.629 119.949L369.209 120.586C369.148 120.679 369.085 120.749 369.02 120.796C368.954 120.843 368.875 120.866 368.782 120.866C368.712 120.866 368.628 120.845 368.53 120.803C368.432 120.756 368.322 120.703 368.201 120.642C368.079 120.577 367.942 120.511 367.788 120.446C367.638 120.381 367.473 120.327 367.291 120.285L367.046 123.183ZM377.246 127.39C377.433 127.39 377.58 127.444 377.687 127.551C377.799 127.654 377.855 127.791 377.855 127.964V129H370.911V128.426C370.911 128.309 370.934 128.188 370.981 128.062C371.032 127.931 371.112 127.815 371.219 127.712L374.292 124.632C374.549 124.371 374.777 124.121 374.978 123.883C375.183 123.645 375.354 123.409 375.489 123.176C375.624 122.943 375.727 122.707 375.797 122.469C375.872 122.226 375.909 121.972 375.909 121.706C375.909 121.463 375.874 121.251 375.804 121.069C375.734 120.882 375.634 120.726 375.503 120.6C375.377 120.474 375.223 120.381 375.041 120.32C374.864 120.255 374.663 120.222 374.439 120.222C374.234 120.222 374.042 120.252 373.865 120.313C373.692 120.369 373.538 120.451 373.403 120.558C373.268 120.661 373.153 120.782 373.06 120.922C372.967 121.062 372.897 121.216 372.85 121.384C372.771 121.599 372.668 121.741 372.542 121.811C372.416 121.881 372.234 121.897 371.996 121.86L371.086 121.699C371.156 121.214 371.291 120.789 371.492 120.425C371.693 120.056 371.942 119.751 372.241 119.508C372.544 119.261 372.89 119.076 373.277 118.955C373.669 118.829 374.089 118.766 374.537 118.766C375.004 118.766 375.431 118.836 375.818 118.976C376.205 119.111 376.537 119.305 376.812 119.557C377.087 119.809 377.302 120.112 377.456 120.467C377.61 120.822 377.687 121.216 377.687 121.65C377.687 122.023 377.631 122.369 377.519 122.686C377.412 123.003 377.265 123.307 377.078 123.596C376.896 123.885 376.681 124.165 376.434 124.436C376.187 124.707 375.928 124.982 375.657 125.262L373.375 127.593C373.594 127.528 373.811 127.479 374.026 127.446C374.245 127.409 374.453 127.39 374.649 127.39H377.246ZM379.256 121.699C379.326 121.214 379.461 120.789 379.662 120.425C379.863 120.056 380.112 119.751 380.411 119.508C380.714 119.261 381.06 119.076 381.447 118.955C381.839 118.829 382.259 118.766 382.707 118.766C383.174 118.766 383.594 118.834 383.967 118.969C384.345 119.1 384.667 119.284 384.933 119.522C385.199 119.755 385.402 120.031 385.542 120.348C385.687 120.665 385.759 121.008 385.759 121.377C385.759 121.699 385.722 121.984 385.647 122.231C385.577 122.474 385.474 122.686 385.339 122.868C385.204 123.05 385.036 123.204 384.835 123.33C384.634 123.456 384.408 123.561 384.156 123.645C384.763 123.836 385.215 124.128 385.514 124.52C385.813 124.912 385.962 125.404 385.962 125.997C385.962 126.501 385.869 126.947 385.682 127.334C385.495 127.721 385.243 128.048 384.926 128.314C384.609 128.575 384.24 128.774 383.82 128.909C383.405 129.044 382.964 129.112 382.497 129.112C381.988 129.112 381.545 129.054 381.167 128.937C380.789 128.82 380.46 128.648 380.18 128.419C379.9 128.19 379.662 127.91 379.466 127.579C379.27 127.248 379.102 126.865 378.962 126.431L379.725 126.116C379.926 126.032 380.112 126.011 380.285 126.053C380.462 126.09 380.591 126.184 380.67 126.333C380.754 126.496 380.845 126.657 380.943 126.816C381.046 126.975 381.167 127.117 381.307 127.243C381.447 127.364 381.61 127.465 381.797 127.544C381.988 127.619 382.215 127.656 382.476 127.656C382.77 127.656 383.027 127.609 383.246 127.516C383.465 127.418 383.647 127.292 383.792 127.138C383.941 126.984 384.051 126.814 384.121 126.627C384.196 126.436 384.233 126.244 384.233 126.053C384.233 125.81 384.207 125.591 384.156 125.395C384.105 125.194 383.997 125.024 383.834 124.884C383.671 124.744 383.435 124.634 383.127 124.555C382.824 124.476 382.415 124.436 381.902 124.436V123.204C382.327 123.199 382.679 123.16 382.959 123.085C383.239 123.01 383.461 122.908 383.624 122.777C383.792 122.642 383.909 122.481 383.974 122.294C384.039 122.107 384.072 121.902 384.072 121.678C384.072 121.202 383.939 120.84 383.673 120.593C383.407 120.346 383.052 120.222 382.609 120.222C382.404 120.222 382.215 120.252 382.042 120.313C381.869 120.369 381.713 120.451 381.573 120.558C381.438 120.661 381.323 120.782 381.23 120.922C381.137 121.062 381.067 121.216 381.02 121.384C380.941 121.599 380.836 121.741 380.705 121.811C380.579 121.881 380.399 121.897 380.166 121.86L379.256 121.699ZM389.463 122.553C389.687 122.506 389.902 122.474 390.107 122.455C390.312 122.432 390.511 122.42 390.702 122.42C391.234 122.42 391.703 122.499 392.109 122.658C392.515 122.817 392.856 123.036 393.131 123.316C393.406 123.596 393.614 123.925 393.754 124.303C393.894 124.676 393.964 125.08 393.964 125.514C393.964 126.051 393.868 126.541 393.677 126.984C393.49 127.427 393.229 127.808 392.893 128.125C392.557 128.438 392.158 128.68 391.696 128.853C391.239 129.026 390.739 129.112 390.198 129.112C389.881 129.112 389.58 129.079 389.295 129.014C389.01 128.949 388.742 128.862 388.49 128.755C388.243 128.643 388.012 128.517 387.797 128.377C387.587 128.232 387.398 128.081 387.23 127.922L387.762 127.187C387.874 127.028 388.021 126.949 388.203 126.949C388.32 126.949 388.439 126.986 388.56 127.061C388.681 127.136 388.819 127.217 388.973 127.306C389.132 127.395 389.316 127.476 389.526 127.551C389.741 127.626 389.997 127.663 390.296 127.663C390.613 127.663 390.893 127.612 391.136 127.509C391.379 127.406 391.579 127.264 391.738 127.082C391.901 126.895 392.023 126.676 392.102 126.424C392.186 126.167 392.228 125.89 392.228 125.591C392.228 125.04 392.067 124.611 391.745 124.303C391.428 123.99 390.956 123.834 390.331 123.834C389.85 123.834 389.358 123.923 388.854 124.1L387.776 123.792L388.616 118.878H393.614V119.613C393.614 119.86 393.537 120.061 393.383 120.215C393.229 120.369 392.968 120.446 392.599 120.446H389.82L389.463 122.553Z" fill="black"/>
<defs>
<linearGradient id="paint0_linear_959_10115" x1="418" y1="27" x2="418" y2="347" gradientUnits="userSpaceOnUse">
<stop stop-color="white"/>
<stop offset="1" stop-color="white" stop-opacity="0"/>
</linearGradient>
</defs>
</svg>
